<?xml version="1.0" encoding="iso-8859-1"?>
<!-- Generator: Adobe Illustrator 19.0.0, SVG Export Plug-In . SVG Version: 6.00 Build 0)  -->
<svg version="1.1" id="Capa_1" xmlns="http://www.w3.org/2000/svg" xmlns:xlink="http://www.w3.org/1999/xlink" x="0px" y="0px"
	 viewBox="0 0 56 56" style="enable-background:new 0 0 56 56;" xml:space="preserve">
<g>
	<g>
		<path d="M28,31c4.687,0,8.5-3.813,8.5-8.5S32.686,14,28,14s-8.5,3.813-8.5,8.5S23.313,31,28,31z M28,16c3.584,0,6.5,2.916,6.5,6.5
			S31.584,29,28,29s-6.5-2.916-6.5-6.5S24.416,16,28,16z"/>
		<polygon points="31.5,24 31.5,22 28.5,22 28.5,18 26.5,18 26.5,22 26.5,24 28.5,24 		"/>
		<path d="M44.5,49h-4V10c0.444,0,0.835-0.293,0.96-0.719c0.125-0.427-0.047-0.884-0.421-1.123l-12.5-8
			c-0.328-0.211-0.75-0.211-1.078,0l-12.5,8c-0.374,0.239-0.546,0.696-0.421,1.123C14.665,9.707,15.056,10,15.5,10v39h-4
			c-0.553,0-1,0.447-1,1v5c0,0.553,0.447,1,1,1h33c0.553,0,1-0.447,1-1v-5C45.5,49.447,45.053,49,44.5,49z M28,2.187L37.082,8
			H18.918L28,2.187z M17.5,10h21v39h-4v-6.506C34.5,38.913,31.584,36,28,36s-6.5,2.913-6.5,6.494V49h-4V10z M32.5,49h-9v-6.506
			C23.5,40.016,25.519,38,28,38s4.5,2.016,4.5,4.494V49z M43.5,54h-31v-3h4h6h11h6h4V54z"/>
	</g>
</g>
<g>
</g>
<g>
</g>
<g>
</g>
<g>
</g>
<g>
</g>
<g>
</g>
<g>
</g>
<g>
</g>
<g>
</g>
<g>
</g>
<g>
</g>
<g>
</g>
<g>
</g>
<g>
</g>
<g>
</g>
</svg>
