<?xml version="1.0" encoding="UTF-8"?>
<!DOCTYPE svg PUBLIC "-//W3C//DTD SVG 1.1//EN" "http://www.w3.org/Graphics/SVG/1.1/DTD/svg11.dtd">
<!-- Creator: CorelDRAW 2021 (64-Bit) -->
<svg xmlns="http://www.w3.org/2000/svg" xml:space="preserve" width="215px" height="280px" version="1.1" style="shape-rendering:geometricPrecision; text-rendering:geometricPrecision; image-rendering:optimizeQuality; fill-rule:evenodd; clip-rule:evenodd"
viewBox="0 0 19.36 25.22"
 xmlns:xlink="http://www.w3.org/1999/xlink"
 xmlns:xodm="http://www.corel.com/coreldraw/odm/2003">
 <defs>
  <style type="text/css">
   <![CDATA[
    .fil0 {fill:none}
    .fil1 {fill:white}
    .fil2 {fill:black;fill-rule:nonzero}
   ]]>
  </style>
 </defs>
 <g id="Capa_x0020_1">
  <metadata id="CorelCorpID_0Corel-Layer"/>
  <rect class="fil0" width="19.36" height="25.22"/>
  <g>
   <path class="fil1" d="M8.27 12.97c-0.01,-0.04 -0.02,-0.09 -0.03,-0.13 -0.09,-0.29 -0.69,-2.28 -0.77,-2.56l2.48 -1.1 -1.4 1.08 0 1.71c0.31,-0.13 0.69,-0.15 1.04,-0.02 0.75,0.28 0.94,1.1 0.9,1.43l2.22 -0.61 0.01 -4.27c0,-0.73 -0.56,-1.33 -1.25,-1.33l-1.63 -0.04c-0.34,0 -0.67,0.13 -0.91,0.37 -0.1,0.08 -0.17,0.19 -0.23,0.3l0.59 -0.11 -3.14 1.39c-0.38,0.16 -0.57,0.59 -0.45,0.98l0.98 3.25c0.13,0.44 0.58,0.68 1.01,0.55 0.06,-0.02 0.11,-0.04 0.16,-0.07 0.12,0.21 0.37,0.34 0.68,0.22 -0.17,0.11 -0.23,0.34 -0.13,0.52 0.08,0.13 0.22,0.21 0.36,0.21 0.06,0 0.12,-0.01 0.18,-0.05 0.06,0.53 0.12,0.87 0.16,1.11 0.01,0.09 0.09,0.17 0.2,0.17 0.1,0 0.18,-0.08 0.2,-0.18 0.14,-0.84 0.22,-1.63 0.29,-2.48 0.01,-0.29 -0.15,-0.53 -0.4,-0.64 -0.31,-0.13 -0.54,-0.01 -0.88,0.17 -0.08,0.04 -0.17,0.09 -0.24,0.13zm5.4 -9.8c-0.11,-0.35 -0.49,-0.55 -0.84,-0.44 -0.15,0.04 -0.3,0.08 -0.45,0.12l-0.43 -1.58c-0.03,-0.13 -0.16,-0.21 -0.3,-0.18l-0.78 0.18c-0.22,0.05 -0.45,0.05 -0.67,0l-0.79 -0.18c-0.13,-0.03 -0.27,0.05 -0.3,0.18l-0.42 1.58c-0.15,-0.04 -0.3,-0.08 -0.45,-0.12 -0.36,-0.11 -0.74,0.09 -0.85,0.44 -0.11,0.36 0.09,0.74 0.45,0.85 0.29,0.09 0.59,0.16 0.89,0.22 -0.01,0.08 -0.02,0.16 -0.02,0.25 0,1.01 0.82,1.83 1.83,1.83 1.01,0 1.83,-0.82 1.83,-1.83 0,-0.08 -0.01,-0.17 -0.02,-0.25 0.29,-0.06 0.59,-0.13 0.87,-0.22 0.36,-0.11 0.56,-0.49 0.45,-0.85zm-3.33 11.03c-0.14,0.7 -0.31,1.53 -0.54,2.2 -0.09,0.28 -0.39,0.43 -0.67,0.34 -0.16,-0.05 -0.28,-0.18 -0.34,-0.34 -0.08,-0.24 -0.16,-0.55 -0.21,-0.76l0 7.46c0,0.57 0.46,1.04 1.03,1.04 0.58,0 1.04,-0.47 1.04,-1.04l0 -7.79 0.81 0 0 7.79c0,0.34 -0.1,0.67 -0.26,0.94 0.13,0.06 0.28,0.1 0.43,0.1 0.58,0 1.06,-0.47 1.06,-1.04l0 -9.55 -2.35 0.65zm-1.25 -7.62c0.01,0 0.02,-0.01 0.03,-0.01 -0.13,-0.09 -0.25,-0.19 -0.37,-0.3 -0.38,-0.39 -0.64,-0.9 -0.71,-1.48 -0.13,-0.03 -0.26,-0.07 -0.4,-0.11 -0.36,-0.11 -0.65,-0.36 -0.81,-0.67 -0.16,-0.31 -0.21,-0.68 -0.1,-1.04 0.12,-0.36 0.36,-0.64 0.67,-0.8 0.24,-0.13 0.51,-0.19 0.79,-0.15l0.25 -0.93 0 0c0.07,-0.25 0.23,-0.44 0.43,-0.56 0.2,-0.13 0.45,-0.17 0.7,-0.12l0.78 0.19c0.06,0.01 0.12,0.02 0.18,0.02 0.07,0 0.13,-0.01 0.18,-0.02l0.79 -0.19c0.24,-0.05 0.49,-0.01 0.69,0.12 0.21,0.12 0.37,0.32 0.43,0.56l0.25 0.93c0.28,-0.04 0.55,0.02 0.79,0.15 0.31,0.16 0.56,0.44 0.67,0.8 0.11,0.36 0.07,0.73 -0.1,1.04 -0.16,0.31 -0.44,0.56 -0.8,0.67 -0.15,0.04 -0.28,0.08 -0.39,0.11 -0.07,0.58 -0.33,1.09 -0.72,1.48 -0.1,0.11 -0.21,0.2 -0.33,0.28 0.33,0.1 0.63,0.29 0.87,0.54 0.34,0.36 0.55,0.86 0.54,1.41l0.01 0 0 0 -0.01 0 0 4.27 0 0c0,0.15 -0.05,0.29 -0.13,0.4 0.07,0.11 0.11,0.24 0.11,0.38l0 9.55c0,0.48 -0.2,0.91 -0.52,1.22 -0.32,0.32 -0.75,0.51 -1.23,0.51 -0.12,0 -0.24,-0.02 -0.37,-0.04 -0.12,-0.03 -0.23,-0.07 -0.33,-0.11 -0.03,-0.01 -0.06,-0.03 -0.08,-0.04 -0.08,-0.05 -0.14,-0.1 -0.19,-0.17 -0.29,0.23 -0.65,0.36 -1.05,0.36 -0.47,0 -0.9,-0.19 -1.21,-0.51 -0.01,0 -0.01,0 -0.01,0 0,0 0,0 0,0 0,0 0,0 0,0 -0.31,-0.31 -0.51,-0.75 -0.51,-1.22l0 -7.46 0.01 0c0,-0.17 0.06,-0.33 0.17,-0.46 -0.1,-0.09 -0.19,-0.19 -0.26,-0.32 -0.05,-0.09 -0.09,-0.18 -0.11,-0.28 0,0 -0.01,-0.01 -0.02,-0.01 -0.32,0.04 -0.64,-0.02 -0.92,-0.17 -0.34,-0.18 -0.61,-0.49 -0.73,-0.88 0,0 -0.01,-0.01 -0.01,-0.01l-0.97 -3.25c-0.11,-0.36 -0.08,-0.74 0.07,-1.06 0.15,-0.33 0.41,-0.6 0.76,-0.75l2.23 -0.99c0.05,-0.09 0.1,-0.17 0.15,-0.24l0 0c0,0 0,0 0,0 0.06,-0.08 0.13,-0.15 0.2,-0.22 0.18,-0.18 0.41,-0.33 0.64,-0.42z"/>
   <path id="_1" class="fil2" d="M11.47 7.17l-1.63 -0.04c-0.34,0 -0.67,0.13 -0.91,0.37 -0.1,0.08 -0.17,0.19 -0.23,0.3l0.59 -0.11 -3.14 1.39c-0.38,0.16 -0.57,0.59 -0.45,0.98l0.98 3.25c0.13,0.44 0.58,0.68 1.01,0.55 0.06,-0.02 0.11,-0.04 0.16,-0.07 0.12,0.21 0.37,0.34 0.68,0.22 -0.17,0.11 -0.23,0.34 -0.13,0.52 0.08,0.13 0.22,0.21 0.36,0.21 0.06,0 0.12,-0.01 0.18,-0.05 0.06,0.53 0.12,0.87 0.16,1.11 0.01,0.09 0.09,0.17 0.2,0.17 0.1,0 0.18,-0.08 0.2,-0.18 0.14,-0.84 0.22,-1.63 0.29,-2.48 0.01,-0.29 -0.15,-0.53 -0.4,-0.64 -0.31,-0.13 -0.54,-0.01 -0.88,0.17 -0.08,0.04 -0.17,0.09 -0.24,0.13 -0.01,-0.04 -0.02,-0.09 -0.03,-0.13 -0.09,-0.29 -0.69,-2.28 -0.77,-2.56l2.48 -1.1 -1.4 1.08 0 1.71c0.31,-0.13 0.69,-0.15 1.04,-0.02 0.75,0.28 0.94,1.1 0.9,1.43l2.22 -0.61 0.01 -4.27c0,-0.73 -0.56,-1.33 -1.25,-1.33zm2.2 -4c-0.11,-0.35 -0.49,-0.55 -0.84,-0.44 -0.15,0.04 -0.3,0.08 -0.45,0.12l-0.43 -1.58c-0.03,-0.13 -0.16,-0.21 -0.3,-0.18l-0.78 0.18c-0.22,0.05 -0.45,0.05 -0.67,0l-0.79 -0.18c-0.13,-0.03 -0.27,0.05 -0.3,0.18l-0.42 1.58c-0.15,-0.04 -0.3,-0.08 -0.45,-0.12 -0.36,-0.11 -0.74,0.09 -0.85,0.44 -0.11,0.36 0.09,0.74 0.45,0.85 0.29,0.09 0.59,0.16 0.89,0.22 -0.01,0.08 -0.02,0.16 -0.02,0.25 0,1.01 0.82,1.83 1.83,1.83 1.01,0 1.83,-0.82 1.83,-1.83 0,-0.08 -0.01,-0.17 -0.02,-0.25 0.29,-0.06 0.59,-0.13 0.87,-0.22 0.36,-0.11 0.56,-0.49 0.45,-0.85zm-3.33 11.03c-0.14,0.7 -0.31,1.53 -0.54,2.2 -0.09,0.28 -0.39,0.43 -0.67,0.34 -0.16,-0.05 -0.28,-0.18 -0.34,-0.34 -0.08,-0.24 -0.16,-0.55 -0.21,-0.76l0 7.46c0,0.57 0.46,1.04 1.03,1.04 0.58,0 1.04,-0.47 1.04,-1.04l0 -7.79 0.81 0 0 7.79c0,0.34 -0.1,0.67 -0.26,0.94 0.13,0.06 0.28,0.1 0.43,0.1 0.58,0 1.06,-0.47 1.06,-1.04l0 -9.55 -2.35 0.65z"/>
  </g>
 </g>
</svg>
