<?xml version="1.0" encoding="UTF-8"?>
<!DOCTYPE svg PUBLIC "-//W3C//DTD SVG 1.1//EN" "http://www.w3.org/Graphics/SVG/1.1/DTD/svg11.dtd">
<!-- Creator: CorelDRAW 2021 (64-Bit) -->
<svg xmlns="http://www.w3.org/2000/svg" xml:space="preserve" width="215px" height="280px" version="1.1" style="shape-rendering:geometricPrecision; text-rendering:geometricPrecision; image-rendering:optimizeQuality; fill-rule:evenodd; clip-rule:evenodd"
viewBox="0 0 190.31 247.85"
 xmlns:xlink="http://www.w3.org/1999/xlink"
 xmlns:xodm="http://www.corel.com/coreldraw/odm/2003">
 <defs>
  <style type="text/css">
   <![CDATA[
    .fil0 {fill:none}
    .fil1 {fill:white}
    .fil2 {fill:black;fill-rule:nonzero}
   ]]>
  </style>
 </defs>
 <g id="Capa_x0020_1">
  <metadata id="CorelCorpID_0Corel-Layer"/>
  <rect class="fil0" width="190.31" height="247.85"/>
  <g>
   <path class="fil1" d="M109.07 127.48c0.05,-0.43 0.13,-0.86 0.26,-1.28 0.85,-2.83 6.74,-22.42 7.57,-25.17l-24.42 -10.82 13.81 10.59 0 16.88c-3.06,-1.28 -6.79,-1.46 -10.2,-0.22 -7.4,2.71 -9.3,10.84 -8.89,14.02l-21.8 -5.97 -0.06 -41.97c-0.01,-7.22 5.46,-13.09 12.21,-13.1l16.05 -0.33c3.35,-0.06 6.59,1.22 8.99,3.56 0.89,0.87 1.64,1.87 2.23,2.94l-5.84 -1.08 30.9 13.68c3.7,1.64 5.6,5.78 4.43,9.66l-9.6 31.95c-1.29,4.28 -5.8,6.65 -10,5.38 -0.56,-0.17 -1.09,-0.39 -1.58,-0.67 -1.11,2.06 -3.6,3.34 -6.63,2.12 1.64,1.14 2.19,3.35 1.22,5.14 -0.72,1.33 -2.08,2.08 -3.49,2.08 -0.61,0 -1.23,-0.15 -1.82,-0.45 -0.59,5.14 -1.11,8.49 -1.5,10.85 -0.15,0.94 -0.96,1.7 -2.02,1.69 -0.98,-0.01 -1.8,-0.79 -1.95,-1.76 -1.36,-8.29 -2.12,-16.01 -2.85,-24.4 -0.11,-2.79 1.51,-5.2 3.92,-6.24 3.03,-1.32 5.31,-0.1 8.62,1.61 0.79,0.39 1.68,0.88 2.44,1.31zm-53.12 -96.28c1.08,-3.5 4.8,-5.47 8.3,-4.39 1.46,0.45 2.93,0.84 4.41,1.2l4.16 -15.54c0.35,-1.3 1.66,-2.09 2.97,-1.78l7.73 1.79c2.16,0.49 4.41,0.49 6.57,0l7.73 -1.79c1.3,-0.31 2.62,0.48 2.96,1.78l4.16 15.54c1.48,-0.36 2.96,-0.75 4.42,-1.2 3.5,-1.08 7.22,0.89 8.29,4.39 1.08,3.5 -0.88,7.22 -4.39,8.29 -2.88,0.89 -5.78,1.62 -8.71,2.22 0.11,0.78 0.17,1.57 0.17,2.39 0.01,9.93 -8.03,17.99 -17.96,18 -9.94,0.02 -18,-8.02 -18.01,-17.96 0,-0.83 0.06,-1.66 0.17,-2.46 -2.88,-0.59 -5.74,-1.31 -8.57,-2.19 -3.51,-1.07 -5.47,-4.79 -4.4,-8.29zm32.71 108.39c1.39,6.86 3.1,14.96 5.31,21.63 0.91,2.74 3.87,4.22 6.61,3.31 1.61,-0.54 2.8,-1.81 3.3,-3.31 0.79,-2.36 1.61,-5.45 2.15,-7.5l0 73.31c0,5.63 -4.57,10.2 -10.2,10.2 -5.63,0 -10.19,-4.57 -10.19,-10.2l0 -76.57 -7.93 0 0 76.57c0,3.38 0.93,6.55 2.54,9.26 -1.3,0.6 -2.74,0.94 -4.26,0.94 -5.63,0 -10.39,-4.57 -10.39,-10.2l0 -93.81 23.06 6.37zm12.29 -74.92c-0.09,-0.03 -0.17,-0.07 -0.26,-0.1 1.29,-0.88 2.49,-1.87 3.58,-2.97 3.8,-3.81 6.37,-8.86 7.04,-14.5 1.24,-0.32 2.55,-0.7 3.94,-1.13 3.55,-1.09 6.32,-3.52 7.92,-6.56 1.6,-3.02 2.05,-6.66 0.96,-10.2 -1.09,-3.54 -3.52,-6.31 -6.56,-7.92 -2.33,-1.24 -5.04,-1.79 -7.79,-1.47l-2.44 -9.11 -0.01 0.01c-0.65,-2.42 -2.2,-4.36 -4.19,-5.56 -1.99,-1.19 -4.42,-1.64 -6.83,-1.08l-7.74 1.79c-0.54,0.12 -1.13,0.18 -1.77,0.18 -0.63,0 -1.22,-0.06 -1.77,-0.18l-7.73 -1.79c-2.41,-0.56 -4.84,-0.11 -6.83,1.08 -2.01,1.21 -3.56,3.15 -4.2,5.55l-2.44 9.11c-2.75,-0.32 -5.46,0.23 -7.8,1.47 -3.03,1.61 -5.46,4.38 -6.55,7.92 -1.09,3.54 -0.65,7.18 0.95,10.2 1.61,3.04 4.38,5.47 7.92,6.56 1.41,0.43 2.68,0.8 3.81,1.1 0.67,5.68 3.26,10.76 7.1,14.59 1,1 2.08,1.91 3.24,2.72 -3.3,0.95 -6.24,2.8 -8.55,5.29 -3.33,3.56 -5.38,8.47 -5.38,13.87l-0.02 0 0 0 0.02 0 0.06 41.97 0 0c0,1.44 0.46,2.83 1.29,3.97 -0.7,1.08 -1.12,2.36 -1.12,3.74l0 93.81c0,4.7 1.97,8.94 5.1,12.02 3.13,3.07 7.43,4.97 12.09,4.97 1.16,0 2.38,-0.14 3.63,-0.42 1.18,-0.26 2.28,-0.63 3.29,-1.07 0.27,-0.12 0.53,-0.25 0.79,-0.4 0.73,-0.43 1.35,-0.98 1.84,-1.6 2.87,2.19 6.44,3.49 10.29,3.49 4.66,0 8.89,-1.89 11.97,-4.96 0.01,0 0.01,-0.01 0.02,-0.01 0,-0.01 0.01,-0.01 0.01,-0.02 0.01,0 0.01,-0.01 0.02,-0.01 3.07,-3.09 4.97,-7.32 4.97,-11.99l0 -73.31 -0.01 0c0,-1.69 -0.64,-3.3 -1.74,-4.53 1.03,-0.85 1.92,-1.91 2.6,-3.16 0.48,-0.88 0.82,-1.8 1.04,-2.73 0.07,-0.04 0.14,-0.08 0.21,-0.12 3.16,0.45 6.34,-0.16 9.07,-1.62 3.33,-1.77 5.99,-4.8 7.19,-8.7 0.01,-0.03 0.02,-0.06 0.03,-0.1l9.61 -31.95c1.06,-3.55 0.72,-7.24 -0.74,-10.42 -1.47,-3.2 -4.06,-5.88 -7.47,-7.39l-21.88 -9.69c-0.47,-0.87 -0.98,-1.65 -1.5,-2.34l-0.02 0.01c0,0 0,-0.01 -0.01,-0.01 -0.6,-0.8 -1.24,-1.52 -1.89,-2.16 -1.86,-1.82 -4.02,-3.22 -6.36,-4.14z"/>
   <path id="_1" class="fil2" d="M77.55 70.44l16.05 -0.33c3.35,-0.06 6.59,1.22 8.99,3.56 0.89,0.87 1.64,1.87 2.23,2.94l-5.84 -1.08 30.9 13.68c3.7,1.64 5.6,5.78 4.43,9.66l-9.6 31.95c-1.29,4.28 -5.8,6.65 -10,5.38 -0.56,-0.17 -1.09,-0.39 -1.58,-0.67 -1.11,2.06 -3.6,3.34 -6.63,2.12 1.64,1.14 2.19,3.35 1.22,5.14 -0.72,1.33 -2.08,2.08 -3.49,2.08 -0.61,0 -1.23,-0.15 -1.82,-0.45 -0.59,5.14 -1.11,8.49 -1.5,10.85 -0.15,0.94 -0.96,1.7 -2.02,1.69 -0.98,-0.01 -1.8,-0.79 -1.95,-1.76 -1.36,-8.29 -2.12,-16.01 -2.85,-24.4 -0.11,-2.79 1.51,-5.2 3.92,-6.24 3.03,-1.32 5.31,-0.1 8.62,1.61 0.79,0.39 1.68,0.88 2.44,1.31 0.05,-0.43 0.13,-0.86 0.26,-1.28 0.85,-2.83 6.74,-22.42 7.57,-25.17l-24.42 -10.82 13.81 10.59 0 16.88c-3.06,-1.28 -6.79,-1.46 -10.2,-0.22 -7.4,2.71 -9.3,10.84 -8.89,14.02l-21.8 -5.97 -0.06 -41.97c-0.01,-7.22 5.46,-13.09 12.21,-13.1zm-21.6 -39.24c1.08,-3.5 4.8,-5.47 8.3,-4.39 1.46,0.45 2.93,0.84 4.41,1.2l4.16 -15.54c0.35,-1.3 1.66,-2.09 2.97,-1.78l7.73 1.79c2.16,0.49 4.41,0.49 6.57,0l7.73 -1.79c1.3,-0.31 2.62,0.48 2.96,1.78l4.16 15.54c1.48,-0.36 2.96,-0.75 4.42,-1.2 3.5,-1.08 7.22,0.89 8.29,4.39 1.08,3.5 -0.88,7.22 -4.39,8.29 -2.88,0.89 -5.78,1.62 -8.71,2.22 0.11,0.78 0.17,1.57 0.17,2.39 0.01,9.93 -8.03,17.99 -17.96,18 -9.94,0.02 -18,-8.02 -18.01,-17.96 0,-0.83 0.06,-1.66 0.17,-2.46 -2.88,-0.59 -5.74,-1.31 -8.57,-2.19 -3.51,-1.07 -5.47,-4.79 -4.4,-8.29zm32.71 108.39c1.39,6.86 3.1,14.96 5.31,21.63 0.91,2.74 3.87,4.22 6.61,3.31 1.61,-0.54 2.8,-1.81 3.3,-3.31 0.79,-2.36 1.61,-5.45 2.15,-7.5l0 73.31c0,5.63 -4.57,10.2 -10.2,10.2 -5.63,0 -10.19,-4.57 -10.19,-10.2l0 -76.57 -7.93 0 0 76.57c0,3.38 0.93,6.55 2.54,9.26 -1.3,0.6 -2.74,0.94 -4.26,0.94 -5.63,0 -10.39,-4.57 -10.39,-10.2l0 -93.81 23.06 6.37z"/>
  </g>
 </g>
</svg>
