<?xml version="1.0" encoding="UTF-8"?>
<!DOCTYPE svg PUBLIC "-//W3C//DTD SVG 1.1//EN" "http://www.w3.org/Graphics/SVG/1.1/DTD/svg11.dtd">
<!-- Creator: CorelDRAW 2021 (64-Bit) -->
<svg xmlns="http://www.w3.org/2000/svg" xml:space="preserve" width="215px" height="280px" version="1.1" style="shape-rendering:geometricPrecision; text-rendering:geometricPrecision; image-rendering:optimizeQuality; fill-rule:evenodd; clip-rule:evenodd"
viewBox="0 0 24.84 32.35"
 xmlns:xlink="http://www.w3.org/1999/xlink"
 xmlns:xodm="http://www.corel.com/coreldraw/odm/2003">
 <defs>
  <style type="text/css">
   <![CDATA[
    .fil0 {fill:none}
    .fil1 {fill:white}
    .fil2 {fill:black;fill-rule:nonzero}
   ]]>
  </style>
 </defs>
 <g id="Capa_x0020_1">
  <metadata id="CorelCorpID_0Corel-Layer"/>
  <rect class="fil0" width="24.84" height="32.35"/>
  <g>
   <path class="fil1" d="M8.81 28.98l1.6 -5.22 -0.31 -2.46c-0.04,-0.32 0.1,-0.63 0.34,-0.81 0,-0.03 -0.01,-0.05 -0.01,-0.08 -0.01,-0.01 -0.01,-0.02 -0.01,-0.03 -0.04,-0.24 -0.07,-0.47 -0.1,-0.7 -0.29,-0.12 -0.53,-0.34 -0.69,-0.62 -0.06,-0.12 -0.1,-0.24 -0.13,-0.36 -0.01,0 -0.02,-0.01 -0.03,-0.01 -0.42,0.06 -0.83,-0.02 -1.19,-0.22 -0.43,-0.23 -0.78,-0.63 -0.94,-1.14l-1.25 -4.17c-0.14,-0.47 -0.09,-0.95 0.1,-1.36 0.19,-0.42 0.53,-0.77 0.97,-0.97l2.86 -1.26c0,-0.01 0,-0.01 0,-0.02 0.06,-0.1 0.13,-0.2 0.19,-0.29 0.02,-0.02 0.04,-0.04 0.06,-0.06 0.06,-0.08 0.13,-0.16 0.19,-0.22 0.25,-0.24 0.53,-0.42 0.83,-0.54 0.02,0 0.03,-0.01 0.04,-0.01 -0.17,-0.12 -0.33,-0.25 -0.47,-0.39 -0.5,-0.5 -0.83,-1.16 -0.92,-1.89 -0.16,-0.05 -0.33,-0.09 -0.51,-0.15 -0.46,-0.14 -0.83,-0.46 -1.04,-0.86 -0.2,-0.39 -0.26,-0.87 -0.12,-1.33 0.14,-0.46 0.46,-0.82 0.85,-1.03 0.31,-0.16 0.66,-0.23 1.02,-0.19l0.32 -1.19c0.08,-0.32 0.29,-0.57 0.55,-0.73 0.26,-0.15 0.57,-0.21 0.89,-0.14l1.01 0.24c0.07,0.01 0.15,0.02 0.23,0.02 0.08,0 0.16,-0.01 0.23,-0.02l1.01 -0.24c0.32,-0.07 0.63,-0.01 0.89,0.14 0,0 0,0 0,0.01l0.01 -0.01c0.25,0.16 0.46,0.41 0.54,0.73l0.32 1.19c0.36,-0.04 0.71,0.03 1.02,0.19 0.39,0.21 0.71,0.57 0.85,1.03 0.14,0.46 0.09,0.94 -0.12,1.33 -0.21,0.4 -0.57,0.72 -1.04,0.86 -0.18,0.06 -0.35,0.1 -0.49,0.14 -0.09,0.74 -0.43,1.41 -0.93,1.91 -0.13,0.13 -0.27,0.25 -0.42,0.35 0.43,0.13 0.81,0.37 1.11,0.69 0.44,0.47 0.71,1.11 0.7,1.81l0.01 0 0 0 -0.01 0 0 5.48c0,0.19 -0.06,0.36 -0.16,0.5 0.06,0.08 0.1,0.17 0.13,0.27 0.02,0.08 0.03,0.16 0.03,0.24l0 0 0 0.59 1.86 4.9c0.01,0.02 0.02,0.04 0.02,0.06 0.05,0.13 0.08,0.26 0.1,0.39 0.02,0.16 0.03,0.31 0.02,0.46l-0.32 5.96c-0.03,0.59 -0.29,1.11 -0.69,1.49 -0.4,0.38 -0.94,0.61 -1.52,0.61 -0.03,0 -0.06,-0.01 -0.09,-0.01l-0.02 0c0,0 0,0 -0.01,0l0 0c-0.61,-0.03 -1.15,-0.31 -1.53,-0.73 -0.38,-0.43 -0.6,-0.99 -0.56,-1.6l0.17 -3.17 -1.21 3.93c-0.14,0.48 -0.43,0.87 -0.79,1.14 -0.38,0.28 -0.84,0.44 -1.32,0.44 -0.11,0 -0.22,-0.01 -0.33,-0.03 -0.09,-0.01 -0.2,-0.04 -0.32,-0.07 -0.59,-0.18 -1.05,-0.58 -1.31,-1.08 -0.27,-0.5 -0.34,-1.1 -0.16,-1.69zm0.84 0.26l1.66 -5.41 -0.33 -2.64c0.08,0.13 0.21,0.23 0.36,0.28 0.36,0.12 0.75,-0.07 0.86,-0.43 0.27,-0.8 0.53,-1.99 0.7,-2.82l3.03 -0.83 0 0.76 1.92 5.05c0.07,0.17 0.1,0.36 0.09,0.54l-0.32 5.96c-0.04,0.71 -0.63,1.26 -1.33,1.26 -0.03,0 -0.05,0 -0.07,0 -0.74,-0.04 -1.3,-0.67 -1.26,-1.4l0.31 -5.68 -1.62 -4.25 -0.18 -0.01 0.52 4.16c0.02,0.19 0,0.38 -0.05,0.56l-1.74 5.68c-0.18,0.57 -0.7,0.94 -1.27,0.94 -0.13,0 -0.26,-0.02 -0.39,-0.06 -0.7,-0.21 -1.1,-0.96 -0.89,-1.66zm-2.13 -17.6l4.03 -1.78 -0.76 0.14c0.08,-0.14 0.17,-0.27 0.29,-0.39 0.31,-0.3 0.74,-0.47 1.17,-0.46l2.1 0.04c0.88,0 1.59,0.77 1.59,1.71l-0.01 5.48 -2.84 0.78c0.01,-0.09 0.11,-1.02 -0.81,-1.66 -0.35,-0.24 -1.17,-0.36 -1.7,-0.14l0 -2.2 1.82 -1.39 -3.19 1.41c0.11,0.36 0.88,2.92 0.99,3.29 0.02,0.06 0.03,0.11 0.04,0.17 0.23,-0.14 0.4,-0.22 0.64,-0.33 0.77,-0.35 1.3,0.18 1.31,0.71 0,0.06 -0.14,1.84 -0.37,3.24 -0.03,0.15 -0.16,0.24 -0.3,0.22 -0.12,-0.02 -0.2,-0.11 -0.22,-0.22 -0.08,-0.48 -0.14,-0.95 -0.2,-1.41 -0.25,0.13 -0.56,0.03 -0.69,-0.21 -0.13,-0.24 -0.05,-0.53 0.16,-0.68 -0.4,0.16 -0.72,0 -0.87,-0.27 -0.06,0.03 -0.13,0.06 -0.2,0.08 -0.55,0.17 -1.14,-0.14 -1.31,-0.7l-1.25 -4.17c-0.15,-0.5 0.1,-1.04 0.58,-1.26zm1.59 -7.57c0.14,-0.46 0.63,-0.71 1.09,-0.57 0.19,0.06 0.38,0.11 0.57,0.16l0.55 -2.03c0.04,-0.17 0.21,-0.27 0.38,-0.24l1.01 0.24c0.28,0.06 0.58,0.06 0.86,0l1.01 -0.24c0.17,-0.03 0.34,0.07 0.38,0.24l0.55 2.03c0.19,-0.05 0.38,-0.1 0.57,-0.16 0.46,-0.14 0.95,0.11 1.09,0.57 0.14,0.46 -0.12,0.94 -0.58,1.08 -0.37,0.12 -0.74,0.21 -1.12,0.29 0.02,0.1 0.03,0.21 0.03,0.32 0,1.3 -1.06,2.35 -2.35,2.34 -1.3,0 -2.35,-1.05 -2.35,-2.35 0,-0.1 0.01,-0.21 0.02,-0.31 -0.38,-0.07 -0.76,-0.17 -1.13,-0.29 -0.46,-0.14 -0.72,-0.62 -0.58,-1.08z"/>
   <path id="_1" class="fil2" d="M9.65 29.24l1.66 -5.41 -0.33 -2.64c0.08,0.13 0.21,0.23 0.36,0.28 0.36,0.12 0.75,-0.07 0.86,-0.43 0.27,-0.8 0.53,-1.99 0.7,-2.82l3.03 -0.83 0 0.76 1.92 5.05c0.07,0.17 0.1,0.36 0.09,0.54l-0.32 5.96c-0.04,0.71 -0.63,1.26 -1.33,1.26 -0.03,0 -0.05,0 -0.07,0 -0.74,-0.04 -1.3,-0.67 -1.26,-1.4l0.31 -5.68 -1.62 -4.25 -0.18 -0.01 0.52 4.16c0.02,0.19 0,0.38 -0.05,0.56l-1.74 5.68c-0.18,0.57 -0.7,0.94 -1.27,0.94 -0.13,0 -0.26,-0.02 -0.39,-0.06 -0.7,-0.21 -1.1,-0.96 -0.89,-1.66zm-2.13 -17.6l4.03 -1.78 -0.76 0.14c0.08,-0.14 0.17,-0.27 0.29,-0.39 0.31,-0.3 0.74,-0.47 1.17,-0.46l2.1 0.04c0.88,0 1.59,0.77 1.59,1.71l-0.01 5.48 -2.84 0.78c0.01,-0.09 0.11,-1.02 -0.81,-1.66 -0.35,-0.24 -1.17,-0.36 -1.7,-0.14l0 -2.2 1.82 -1.39 -3.19 1.41c0.11,0.36 0.88,2.92 0.99,3.29 0.02,0.06 0.03,0.11 0.04,0.17 0.23,-0.14 0.4,-0.22 0.64,-0.33 0.77,-0.35 1.3,0.18 1.31,0.71 0,0.06 -0.14,1.84 -0.37,3.24 -0.03,0.15 -0.16,0.24 -0.3,0.22 -0.12,-0.02 -0.2,-0.11 -0.22,-0.22 -0.08,-0.48 -0.14,-0.95 -0.2,-1.41 -0.25,0.13 -0.56,0.03 -0.69,-0.21 -0.13,-0.24 -0.05,-0.53 0.16,-0.68 -0.4,0.16 -0.72,0 -0.87,-0.27 -0.06,0.03 -0.13,0.06 -0.2,0.08 -0.55,0.17 -1.14,-0.14 -1.31,-0.7l-1.25 -4.17c-0.15,-0.5 0.1,-1.04 0.58,-1.26zm1.59 -7.57c0.14,-0.46 0.63,-0.71 1.09,-0.57 0.19,0.06 0.38,0.11 0.57,0.16l0.55 -2.03c0.04,-0.17 0.21,-0.27 0.38,-0.24l1.01 0.24c0.28,0.06 0.58,0.06 0.86,0l1.01 -0.24c0.17,-0.03 0.34,0.07 0.38,0.24l0.55 2.03c0.19,-0.05 0.38,-0.1 0.57,-0.16 0.46,-0.14 0.95,0.11 1.09,0.57 0.14,0.46 -0.12,0.94 -0.58,1.08 -0.37,0.12 -0.74,0.21 -1.12,0.29 0.02,0.1 0.03,0.21 0.03,0.32 0,1.3 -1.06,2.35 -2.35,2.34 -1.3,0 -2.35,-1.05 -2.35,-2.35 0,-0.1 0.01,-0.21 0.02,-0.31 -0.38,-0.07 -0.76,-0.17 -1.13,-0.29 -0.46,-0.14 -0.72,-0.62 -0.58,-1.08z"/>
  </g>
 </g>
</svg>
