<?xml version="1.0" encoding="UTF-8"?>
<!DOCTYPE svg PUBLIC "-//W3C//DTD SVG 1.1//EN" "http://www.w3.org/Graphics/SVG/1.1/DTD/svg11.dtd">
<!-- Creator: CorelDRAW 2021 (64-Bit) -->
<svg xmlns="http://www.w3.org/2000/svg" xml:space="preserve" width="215px" height="280px" version="1.1" style="shape-rendering:geometricPrecision; text-rendering:geometricPrecision; image-rendering:optimizeQuality; fill-rule:evenodd; clip-rule:evenodd"
viewBox="0 0 60.12 78.29"
 xmlns:xlink="http://www.w3.org/1999/xlink"
 xmlns:xodm="http://www.corel.com/coreldraw/odm/2003">
 <defs>
  <style type="text/css">
   <![CDATA[
    .fil0 {fill:none}
    .fil1 {fill:white}
    .fil2 {fill:black;fill-rule:nonzero}
   ]]>
  </style>
 </defs>
 <g id="Capa_x0020_1">
  <metadata id="CorelCorpID_0Corel-Layer"/>
  <rect class="fil0" width="60.12" height="78.29"/>
  <g>
   <path class="fil1" d="M38.8 70.16l-3.87 -12.65 0.73 -5.96c0.1,-0.78 -0.24,-1.51 -0.82,-1.96 0.02,-0.06 0.03,-0.12 0.04,-0.19 0.01,-0.02 0.01,-0.05 0.01,-0.08 0.1,-0.56 0.18,-1.13 0.26,-1.69 0.68,-0.29 1.27,-0.81 1.65,-1.5 0.15,-0.28 0.26,-0.57 0.33,-0.86 0.02,-0.01 0.04,-0.03 0.06,-0.04 1.01,0.14 2.02,-0.05 2.88,-0.52 1.06,-0.56 1.9,-1.53 2.27,-2.77l3.03 -10.1c0.34,-1.12 0.23,-2.28 -0.23,-3.29 -0.46,-1.01 -1.28,-1.85 -2.36,-2.33l-6.91 -3.06c0,-0.01 -0.01,-0.02 -0.02,-0.03 -0.14,-0.26 -0.29,-0.5 -0.45,-0.71 -0.05,-0.06 -0.09,-0.11 -0.14,-0.16 -0.15,-0.19 -0.31,-0.37 -0.47,-0.52 -0.59,-0.58 -1.27,-1.02 -2.01,-1.31 -0.03,-0.01 -0.05,-0.02 -0.08,-0.03 0.41,-0.28 0.78,-0.59 1.13,-0.94 1.2,-1.21 2.01,-2.8 2.22,-4.58 0.39,-0.1 0.81,-0.22 1.25,-0.36 1.12,-0.34 1.99,-1.11 2.5,-2.07 0.51,-0.95 0.65,-2.1 0.3,-3.22 -0.34,-1.12 -1.11,-2 -2.07,-2.51 -0.74,-0.39 -1.59,-0.56 -2.46,-0.46l-0.77 -2.88c-0.2,-0.75 -0.69,-1.37 -1.33,-1.75 -0.63,-0.38 -1.39,-0.52 -2.16,-0.34l-2.44 0.56c-0.17,0.04 -0.36,0.06 -0.56,0.06 -0.2,0 -0.38,-0.02 -0.56,-0.06l-2.44 -0.56c-0.76,-0.18 -1.53,-0.04 -2.16,0.34 0,0 0,0 0,0l-0.01 0c-0.62,0.38 -1.11,0.99 -1.31,1.75l-0.77 2.88c-0.87,-0.1 -1.73,0.07 -2.47,0.46 -0.96,0.51 -1.72,1.39 -2.07,2.51 -0.34,1.11 -0.2,2.27 0.3,3.22 0.51,0.96 1.39,1.73 2.51,2.07 0.44,0.14 0.84,0.25 1.2,0.35 0.21,1.79 1.03,3.4 2.24,4.61 0.31,0.31 0.66,0.6 1.02,0.86 -1.04,0.3 -1.97,0.88 -2.7,1.67 -1.05,1.12 -1.7,2.68 -1.7,4.38l0 0 0 0 0 0 0.02 13.26c0,0.45 0.14,0.87 0.38,1.22 -0.13,0.19 -0.23,0.41 -0.3,0.65 -0.05,0.19 -0.08,0.38 -0.08,0.56l0 0 0.01 1.44 -4.52 11.87c-0.02,0.05 -0.04,0.09 -0.05,0.14 -0.1,0.3 -0.18,0.62 -0.23,0.95 -0.06,0.37 -0.08,0.74 -0.06,1.1l0.78 14.42c0.08,1.43 0.7,2.7 1.66,3.61 0.97,0.92 2.28,1.47 3.69,1.47 0.08,0 0.15,0 0.23,-0.01l0.02 0c0.02,0 0.03,0 0.04,0l0 0c1.48,-0.08 2.79,-0.75 3.7,-1.78 0.92,-1.02 1.45,-2.38 1.37,-3.86l-0.42 -7.67 2.91 9.52c0.35,1.15 1.05,2.09 1.94,2.74 0.91,0.68 2.03,1.07 3.19,1.07 0.26,0 0.52,-0.02 0.79,-0.06 0.23,-0.04 0.49,-0.1 0.77,-0.19 1.43,-0.43 2.54,-1.4 3.18,-2.6 0.64,-1.21 0.82,-2.67 0.39,-4.08zm-2.05 0.62l-4.01 -13.1 0.79 -6.39c-0.19,0.31 -0.49,0.56 -0.87,0.68 -0.86,0.29 -1.8,-0.18 -2.08,-1.04 -0.65,-1.95 -1.27,-4.82 -1.68,-6.84l-7.35 -2.01 0.01 1.85 -4.66 12.22c-0.16,0.43 -0.23,0.88 -0.2,1.32l0.78 14.42c0.09,1.72 1.51,3.05 3.21,3.05 0.06,0 0.12,0 0.18,-0.01 1.77,-0.09 3.14,-1.61 3.04,-3.39l-0.75 -13.73 3.93 -10.31 0.42 0 -1.24 10.07c-0.06,0.45 -0.02,0.9 0.11,1.34l4.21 13.75c0.43,1.39 1.7,2.28 3.08,2.28 0.31,0 0.63,-0.05 0.94,-0.14 1.7,-0.52 2.66,-2.32 2.14,-4.02zm5.17 -42.6l-9.76 -4.32 1.84 0.34c-0.18,-0.34 -0.42,-0.65 -0.7,-0.93 -0.76,-0.74 -1.78,-1.14 -2.84,-1.12l-5.07 0.1c-2.13,0.01 -3.86,1.86 -3.86,4.14l0.02 13.26 6.89 1.88c-0.04,-0.22 -0.27,-2.47 1.96,-4.01 0.85,-0.58 2.83,-0.88 4.1,-0.35l0 -5.33 -4.4 -3.34 7.72 3.41c-0.26,0.87 -2.12,7.06 -2.39,7.96 -0.04,0.13 -0.07,0.26 -0.09,0.4 -0.57,-0.33 -0.98,-0.53 -1.56,-0.8 -1.86,-0.84 -3.15,0.44 -3.17,1.72 0,0.16 0.35,4.47 0.91,7.86 0.05,0.35 0.38,0.58 0.73,0.52 0.27,-0.04 0.48,-0.26 0.52,-0.52 0.19,-1.18 0.34,-2.3 0.47,-3.43 0.62,0.32 1.36,0.08 1.68,-0.51 0.31,-0.57 0.13,-1.27 -0.38,-1.63 0.95,0.39 1.74,-0.02 2.09,-0.67 0.15,0.09 0.32,0.16 0.5,0.21 1.33,0.4 2.75,-0.34 3.16,-1.69l3.03 -10.1c0.37,-1.22 -0.23,-2.53 -1.4,-3.05zm-3.86 -18.32c-0.34,-1.11 -1.52,-1.73 -2.62,-1.39 -0.46,0.14 -0.93,0.26 -1.4,0.38l-1.31 -4.91c-0.11,-0.41 -0.53,-0.66 -0.94,-0.56l-2.44 0.56c-0.68,0.16 -1.39,0.16 -2.07,0l-2.45 -0.56c-0.41,-0.1 -0.82,0.15 -0.93,0.56l-1.32 4.91c-0.47,-0.12 -0.93,-0.24 -1.39,-0.38 -1.11,-0.34 -2.28,0.28 -2.62,1.39 -0.34,1.1 0.28,2.27 1.38,2.62 0.9,0.27 1.8,0.5 2.71,0.69 -0.03,0.25 -0.05,0.51 -0.05,0.77 0,3.14 2.55,5.68 5.69,5.68 3.14,-0.01 5.68,-2.55 5.67,-5.69 0,-0.26 -0.02,-0.51 -0.05,-0.76 0.92,-0.18 1.84,-0.41 2.75,-0.69 1.11,-0.34 1.73,-1.52 1.39,-2.62z"/>
   <path id="_1" class="fil2" d="M36.75 70.78l-4.01 -13.1 0.79 -6.39c-0.19,0.31 -0.49,0.56 -0.87,0.68 -0.86,0.29 -1.8,-0.18 -2.08,-1.04 -0.65,-1.95 -1.27,-4.82 -1.68,-6.84l-7.35 -2.01 0.01 1.85 -4.66 12.22c-0.16,0.43 -0.23,0.88 -0.2,1.32l0.78 14.42c0.09,1.72 1.51,3.05 3.21,3.05 0.06,0 0.12,0 0.18,-0.01 1.77,-0.09 3.14,-1.61 3.04,-3.39l-0.75 -13.73 3.93 -10.31 0.42 0 -1.24 10.07c-0.06,0.45 -0.02,0.9 0.11,1.34l4.21 13.75c0.43,1.39 1.7,2.28 3.08,2.28 0.31,0 0.63,-0.05 0.94,-0.14 1.7,-0.52 2.66,-2.32 2.14,-4.02zm5.17 -42.6l-9.76 -4.32 1.84 0.34c-0.18,-0.34 -0.42,-0.65 -0.7,-0.93 -0.76,-0.74 -1.78,-1.14 -2.84,-1.12l-5.07 0.1c-2.13,0.01 -3.86,1.86 -3.86,4.14l0.02 13.26 6.89 1.88c-0.04,-0.22 -0.27,-2.47 1.96,-4.01 0.85,-0.58 2.83,-0.88 4.1,-0.35l0 -5.33 -4.4 -3.34 7.72 3.41c-0.26,0.87 -2.12,7.06 -2.39,7.96 -0.04,0.13 -0.07,0.26 -0.09,0.4 -0.57,-0.33 -0.98,-0.53 -1.56,-0.8 -1.86,-0.84 -3.15,0.44 -3.17,1.72 0,0.16 0.35,4.47 0.91,7.86 0.05,0.35 0.38,0.58 0.73,0.52 0.27,-0.04 0.48,-0.26 0.52,-0.52 0.19,-1.18 0.34,-2.3 0.47,-3.43 0.62,0.32 1.36,0.08 1.68,-0.51 0.31,-0.57 0.13,-1.27 -0.38,-1.63 0.95,0.39 1.74,-0.02 2.09,-0.67 0.15,0.09 0.32,0.16 0.5,0.21 1.33,0.4 2.75,-0.34 3.16,-1.69l3.03 -10.1c0.37,-1.22 -0.23,-2.53 -1.4,-3.05zm-3.86 -18.32c-0.34,-1.11 -1.52,-1.73 -2.62,-1.39 -0.46,0.14 -0.93,0.26 -1.4,0.38l-1.31 -4.91c-0.11,-0.41 -0.53,-0.66 -0.94,-0.56l-2.44 0.56c-0.68,0.16 -1.39,0.16 -2.07,0l-2.45 -0.56c-0.41,-0.1 -0.82,0.15 -0.93,0.56l-1.32 4.91c-0.47,-0.12 -0.93,-0.24 -1.39,-0.38 -1.11,-0.34 -2.28,0.28 -2.62,1.39 -0.34,1.1 0.28,2.27 1.38,2.62 0.9,0.27 1.8,0.5 2.71,0.69 -0.03,0.25 -0.05,0.51 -0.05,0.77 0,3.14 2.55,5.68 5.69,5.68 3.14,-0.01 5.68,-2.55 5.67,-5.69 0,-0.26 -0.02,-0.51 -0.05,-0.76 0.92,-0.18 1.84,-0.41 2.75,-0.69 1.11,-0.34 1.73,-1.52 1.39,-2.62z"/>
  </g>
 </g>
</svg>
