<?xml version="1.0" encoding="UTF-8"?>
<!DOCTYPE svg PUBLIC "-//W3C//DTD SVG 1.1//EN" "http://www.w3.org/Graphics/SVG/1.1/DTD/svg11.dtd">
<!-- Creator: CorelDRAW 2021 (64-Bit) -->
<svg xmlns="http://www.w3.org/2000/svg" xml:space="preserve" width="215px" height="280px" version="1.1" style="shape-rendering:geometricPrecision; text-rendering:geometricPrecision; image-rendering:optimizeQuality; fill-rule:evenodd; clip-rule:evenodd"
viewBox="0 0 33.58 43.73"
 xmlns:xlink="http://www.w3.org/1999/xlink"
 xmlns:xodm="http://www.corel.com/coreldraw/odm/2003">
 <defs>
  <style type="text/css">
   <![CDATA[
    .fil0 {fill:none}
    .fil1 {fill:white}
    .fil2 {fill:black;fill-rule:nonzero}
   ]]>
  </style>
 </defs>
 <g id="Capa_x0020_1">
  <metadata id="CorelCorpID_0Corel-Layer"/>
  <rect class="fil0" width="33.58" height="43.73"/>
  <g>
   <path class="fil1" d="M29.91 12.92l2.14 0.1c0.41,0.02 0.78,0.2 1.04,0.47 0.27,0.28 0.43,0.66 0.43,1.06l0 0.65c0,0.41 -0.16,0.78 -0.43,1.06 -0.26,0.28 -0.63,0.46 -1.04,0.48l-1.13 0.05c-0.01,0.04 -0.02,0.09 -0.04,0.13 -0.13,0.45 -0.43,0.84 -0.86,1.07 -0.21,0.11 -0.42,0.18 -0.64,0.21 -0.01,0.02 -0.03,0.04 -0.04,0.06 -0.29,0.36 -0.68,0.64 -1.14,0.81l-6.97 2.5c-0.36,0.13 -0.73,0.18 -1.1,0.15 0,0.32 -0.13,0.62 -0.36,0.84 0.12,0.22 0.18,0.48 0.13,0.75l-0.09 0.63c0.26,0.68 1.03,2.67 2.73,7.13l0 0c0,0 0,0 0,0 0.07,0.19 0.12,0.39 0.16,0.6 0.03,0.21 0.04,0.41 0.03,0.61l-0.43 7.94c0,0.01 0,0.02 0,0.03 -0.05,0.82 -0.43,1.55 -0.99,2.05 -0.57,0.5 -1.32,0.79 -2.13,0.75 -0.01,0 -0.01,0 -0.01,0 -0.82,-0.05 -1.54,-0.42 -2.05,-0.99 -0.51,-0.56 -0.8,-1.32 -0.76,-2.14l0.22 -4.11 -1.57 5.13c0,0 0,0.01 0,0.01 -0.24,0.79 -0.78,1.4 -1.44,1.76 -0.67,0.35 -1.48,0.45 -2.26,0.21 0,0 0,0 -0.01,0 -0.79,-0.24 -1.4,-0.77 -1.76,-1.44 -0.35,-0.67 -0.45,-1.48 -0.21,-2.27l2.13 -6.97c-0.18,-1.5 -0.14,-1.15 -0.15,-1.25 -0.15,-1.14 -0.29,-2.26 -0.41,-3.37 -0.22,0.1 -0.45,0.16 -0.69,0.19 -0.36,0.05 -0.72,0.02 -1.06,-0.08 -0.81,-0.25 -1.53,-0.89 -1.76,-1.9 -0.01,-0.05 -0.02,-0.11 -0.03,-0.16l-0.78 -7.2c-0.08,-0.46 -0.04,-0.92 0.12,-1.35 0.16,-0.45 0.45,-0.85 0.84,-1.16l5.49 -4.3c0.03,-0.02 0.05,-0.04 0.08,-0.06 0.37,-0.27 0.75,-0.43 1.13,-0.51 -0.18,-0.17 -0.35,-0.36 -0.5,-0.56 -0.56,-0.76 -0.87,-1.7 -0.85,-2.69 -0.19,-0.08 -0.41,-0.18 -0.64,-0.29 -0.59,-0.28 -1,-0.77 -1.2,-1.34 -0.2,-0.56 -0.18,-1.21 0.1,-1.79 0.28,-0.59 0.77,-1.01 1.33,-1.21 0.44,-0.15 0.92,-0.18 1.39,-0.05l0.62 -1.44c0.01,-0.02 0.02,-0.04 0.03,-0.06 0.17,-0.41 0.49,-0.7 0.87,-0.86 0.37,-0.15 0.81,-0.17 1.22,-0.01l1.28 0.51c0.1,0.03 0.2,0.06 0.3,0.08 0.1,0.01 0.2,0.01 0.3,0.01l1.38 -0.11c0.44,-0.04 0.85,0.1 1.17,0.36 0.31,0.27 0.53,0.64 0.58,1.08l0.19 1.62c0.48,0.01 0.93,0.18 1.3,0.45 0.49,0.36 0.84,0.91 0.94,1.55 0.09,0.64 -0.08,1.26 -0.44,1.74 -0.36,0.49 -0.9,0.84 -1.54,0.94 -0.2,0.03 -0.42,0.05 -0.67,0.08 -0.26,0.96 -0.84,1.77 -1.6,2.33 -0.19,0.14 -0.4,0.27 -0.61,0.38 0.53,0.25 0.98,0.64 1.31,1.12 0.49,0.71 0.72,1.61 0.58,2.54l0 0 -0.06 0.41 0 0c-0.01,0.08 -0.03,0.15 -0.06,0.23l0.04 0.03 3.95 -1.42c0.06,-0.28 0.17,-0.56 0.33,-0.8 0.22,-0.35 0.54,-0.65 0.93,-0.85 0.04,-0.24 0.15,-0.46 0.29,-0.64 0.04,-0.05 0.08,-0.1 0.13,-0.15 0.27,-0.28 0.66,-0.45 1.09,-0.45l0.72 0c0.42,0 0.81,0.17 1.09,0.45l0 0.01c0.17,0.17 0.3,0.39 0.38,0.63zm-1.2 3.9c0.18,0.2 0.49,0.26 0.73,0.13 0.3,-0.16 0.41,-0.53 0.25,-0.82l-0.26 -0.47c0.18,-0.01 0.35,-0.01 0.51,-0.02 0.88,-0.04 1.64,-0.08 2.06,-0.1 0.18,-0.01 0.32,-0.16 0.32,-0.34l0 -0.65c0,-0.18 -0.14,-0.33 -0.32,-0.34 -0.59,-0.03 -1.89,-0.09 -3.22,-0.15l0 -0.69c0,-0.19 -0.15,-0.34 -0.34,-0.34l-0.72 0c-0.19,0 -0.35,0.15 -0.35,0.34 0,0.23 0,0.39 0,0.62 0,0 -0.01,0 -0.01,0 0,0 -0.14,0 -0.23,0.02 -0.73,0.11 -1.19,0.84 -0.98,1.55l-5.45 1.96 -3.3 -3.2 2.44 1.39 0.06 -0.41c0.18,-1.25 -0.61,-2.4 -1.77,-2.57l-2.76 -0.47c-0.45,-0.08 -1.02,-0.09 -1.55,0.3l-5.55 4.35c-0.42,0.32 -0.62,0.86 -0.5,1.39l0.78 7.24c0.33,1.54 2.69,1.49 2.53,-0.34l-0.58 -6.63 1.87 -1.32 -0.76 5.03 0.14 1.69 7.18 -2.26 -3.47 -5.38 3.92 3.81c0.39,0.37 0.95,0.49 1.45,0.31l6.97 -2.51c0.5,-0.18 0.84,-0.62 0.91,-1.12zm-5.85 -10.3c-0.1,-0.64 -0.68,-1.07 -1.32,-0.97 -0.26,0.04 -0.53,0.07 -0.79,0.09l-0.32 -2.79c-0.02,-0.23 -0.23,-0.4 -0.46,-0.38l-1.38 0.11c-0.39,0.03 -0.77,-0.03 -1.13,-0.17l-1.29 -0.51c-0.22,-0.08 -0.46,0.02 -0.56,0.24l-1.11 2.57c-0.25,-0.1 -0.49,-0.21 -0.73,-0.32 -0.58,-0.28 -1.27,-0.04 -1.55,0.54 -0.27,0.58 -0.03,1.27 0.55,1.54 0.47,0.23 0.95,0.43 1.44,0.61 -0.04,0.13 -0.07,0.27 -0.09,0.41 -0.25,1.71 0.92,3.3 2.64,3.56 1.71,0.26 3.3,-0.92 3.56,-2.63 0.02,-0.15 0.03,-0.29 0.04,-0.43 0.51,-0.03 1.02,-0.08 1.53,-0.16 0.63,-0.09 1.07,-0.68 0.97,-1.31zm-10.99 18.79c0.2,2.36 0.52,4.67 0.81,7.02l-2.21 7.23c-0.29,0.94 0.24,1.93 1.18,2.22 0.94,0.29 1.93,-0.24 2.22,-1.18l2.32 -7.59c0.07,-0.24 0.1,-0.49 0.06,-0.74l-0.72 -5.84 0.17 0.03 2.27 5.95 -0.42 7.57c-0.05,0.98 0.7,1.82 1.68,1.87 0.97,0.06 1.82,-0.69 1.87,-1.67l0.43 -7.96c0.02,-0.25 -0.02,-0.49 -0.11,-0.73 -2.08,-5.45 -2.84,-7.42 -2.84,-7.42l0.14 -0.94 -6.85 2.18z"/>
   <path id="_1" class="fil2" d="M32 14.21c-0.59,-0.03 -1.89,-0.09 -3.22,-0.15l0 -0.69c0,-0.19 -0.15,-0.34 -0.34,-0.34l-0.72 0c-0.19,0 -0.35,0.15 -0.35,0.34 0,0.23 0,0.39 0,0.62 0,0 -0.01,0 -0.01,0 0,0 -0.14,0 -0.23,0.02 -0.73,0.11 -1.19,0.84 -0.98,1.55l-5.45 1.96 -3.3 -3.2 2.44 1.39 0.06 -0.41c0.18,-1.25 -0.61,-2.4 -1.77,-2.57l-2.76 -0.47c-0.45,-0.08 -1.02,-0.09 -1.55,0.3l-5.55 4.35c-0.42,0.32 -0.62,0.86 -0.5,1.39l0.78 7.24c0.33,1.54 2.69,1.49 2.53,-0.34l-0.58 -6.63 1.87 -1.32 -0.76 5.03 0.14 1.69 7.18 -2.26 -3.47 -5.38 3.92 3.81c0.39,0.37 0.95,0.49 1.45,0.31l6.97 -2.51c0.5,-0.18 0.84,-0.62 0.91,-1.12 0.18,0.2 0.49,0.26 0.73,0.13 0.3,-0.16 0.41,-0.53 0.25,-0.82l-0.26 -0.47c0.18,-0.01 0.35,-0.01 0.51,-0.02 0.88,-0.04 1.64,-0.08 2.06,-0.1 0.18,-0.01 0.32,-0.16 0.32,-0.34l0 -0.65c0,-0.18 -0.14,-0.33 -0.32,-0.34zm-9.14 -7.69c-0.1,-0.64 -0.68,-1.07 -1.32,-0.97 -0.26,0.04 -0.53,0.07 -0.79,0.09l-0.32 -2.79c-0.02,-0.23 -0.23,-0.4 -0.46,-0.38l-1.38 0.11c-0.39,0.03 -0.77,-0.03 -1.13,-0.17l-1.29 -0.51c-0.22,-0.08 -0.46,0.02 -0.56,0.24l-1.11 2.57c-0.25,-0.1 -0.49,-0.21 -0.73,-0.32 -0.58,-0.28 -1.27,-0.04 -1.55,0.54 -0.27,0.58 -0.03,1.27 0.55,1.54 0.47,0.23 0.95,0.43 1.44,0.61 -0.04,0.13 -0.07,0.27 -0.09,0.41 -0.25,1.71 0.92,3.3 2.64,3.56 1.71,0.26 3.3,-0.92 3.56,-2.63 0.02,-0.15 0.03,-0.29 0.04,-0.43 0.51,-0.03 1.02,-0.08 1.53,-0.16 0.63,-0.09 1.07,-0.68 0.97,-1.31zm-10.99 18.79c0.2,2.36 0.52,4.67 0.81,7.02l-2.21 7.23c-0.29,0.94 0.24,1.93 1.18,2.22 0.94,0.29 1.93,-0.24 2.22,-1.18l2.32 -7.59c0.07,-0.24 0.1,-0.49 0.06,-0.74l-0.72 -5.84 0.17 0.03 2.27 5.95 -0.42 7.57c-0.05,0.98 0.7,1.82 1.68,1.87 0.97,0.06 1.82,-0.69 1.87,-1.67l0.43 -7.96c0.02,-0.25 -0.02,-0.49 -0.11,-0.73 -2.08,-5.45 -2.84,-7.42 -2.84,-7.42l0.14 -0.94 -6.85 2.18z"/>
  </g>
 </g>
</svg>
