<?xml version="1.0" encoding="UTF-8"?>
<!DOCTYPE svg PUBLIC "-//W3C//DTD SVG 1.1//EN" "http://www.w3.org/Graphics/SVG/1.1/DTD/svg11.dtd">
<!-- Creator: CorelDRAW 2021 (64-Bit) -->
<svg xmlns="http://www.w3.org/2000/svg" xml:space="preserve" width="215px" height="280px" version="1.1" style="shape-rendering:geometricPrecision; text-rendering:geometricPrecision; image-rendering:optimizeQuality; fill-rule:evenodd; clip-rule:evenodd"
viewBox="0 0 59.14 77.02"
 xmlns:xlink="http://www.w3.org/1999/xlink"
 xmlns:xodm="http://www.corel.com/coreldraw/odm/2003">
 <defs>
  <style type="text/css">
   <![CDATA[
    .str0 {stroke:red;stroke-width:0.86;stroke-linecap:round;stroke-miterlimit:22.9256}
    .fil0 {fill:none}
    .fil4 {fill:red}
    .fil2 {fill:white}
    .fil3 {fill:black;fill-rule:nonzero}
    .fil1 {fill:red;fill-rule:nonzero}
   ]]>
  </style>
 </defs>
 <g id="Capa_x0020_1">
  <metadata id="CorelCorpID_0Corel-Layer"/>
  <rect class="fil0" width="59.14" height="77.02"/>
  <g id="_1727076618112">
   <g>
    <g>
     <path class="fil1" d="M33.12 27.06c-0.12,0.62 -0.56,1.07 -1.23,1.27 -0.54,0.15 -1.59,0.1 -2.6,-0.12 -0.25,-0.06 -0.68,-0.16 -0.95,-0.22 -0.54,-0.12 -0.82,-0.17 -1.24,-0.19 -1.22,-0.08 -2.21,0.21 -2.73,0.81 -0.41,0.45 -0.55,1 -0.48,1.77 0.07,0.71 0.31,1.22 0.77,1.66 0.48,0.47 0.92,0.68 2.32,1.12 0.33,0.1 0.73,0.24 0.88,0.3 0.83,0.34 1.21,0.8 1.23,1.46 0.01,0.27 -0.03,0.41 -0.18,0.58 -0.22,0.26 -0.52,0.37 -0.94,0.36 -0.47,-0.02 -0.87,-0.15 -1.27,-0.43 -0.28,-0.2 -0.51,-0.43 -1,-0.99 -0.76,-0.88 -1.11,-1.1 -1.68,-1.09 -0.43,0.02 -0.68,0.12 -0.94,0.4 -0.24,0.25 -0.41,0.67 -0.51,1.22 -0.06,0.4 -0.09,0.83 -0.12,1.61 -0.05,1.47 -0.14,1.92 -0.41,2.16 -0.08,0.07 -0.1,0.08 -0.29,0.08 -0.25,0.01 -0.38,-0.04 -0.6,-0.24 -0.2,-0.17 -0.38,-0.39 -0.78,-0.97 -0.41,-0.59 -0.59,-0.82 -0.84,-1.04 -0.22,-0.21 -0.43,-0.35 -0.66,-0.43 -0.15,-0.05 -0.19,-0.06 -0.53,-0.04 -0.33,0.01 -0.4,0.02 -0.59,0.08 -1.01,0.34 -1.48,1.18 -1.68,2.99 -0.02,0.15 -0.05,0.54 -0.07,0.88 -0.03,0.34 -0.06,0.74 -0.08,0.91 -0.11,1.14 -0.32,1.7 -0.75,1.94 -0.12,0.07 -0.15,0.07 -0.39,0.08 -0.22,0.01 -0.28,0 -0.37,-0.05 -0.23,-0.11 -0.36,-0.3 -0.48,-0.65 -0.05,-0.17 -0.06,-0.25 -0.07,-0.59 -0.01,-0.55 0.04,-0.76 0.47,-1.86 0.3,-0.77 0.44,-1.19 0.53,-1.56 0.12,-0.52 0.14,-0.72 0.12,-1.26 -0.01,-0.43 -0.02,-0.52 -0.07,-0.71 -0.18,-0.63 -0.51,-1.04 -1,-1.27 -0.31,-0.14 -0.52,-0.17 -0.96,-0.16 -0.6,0.02 -1.07,0.13 -1.57,0.4 -0.82,0.43 -1.31,0.96 -2.42,2.62 -0.85,1.27 -1.41,1.86 -2.1,2.23 -0.52,0.28 -1,0.39 -1.59,0.39 -0.3,0 -0.39,-0.01 -0.57,-0.06 -0.47,-0.14 -0.82,-0.49 -0.97,-0.98 -0.06,-0.19 -0.09,-0.62 -0.06,-0.87 0.11,-1.05 0.68,-1.79 1.88,-2.42 0.53,-0.28 0.9,-0.43 2.29,-0.94 1.27,-0.46 1.88,-0.7 2.33,-0.95 1.44,-0.77 2.07,-1.7 2.09,-3.06 0.01,-0.58 -0.11,-1.14 -0.32,-1.56 -0.41,-0.79 -1.12,-1.26 -2.28,-1.53 -0.5,-0.11 -1,-0.17 -2.09,-0.26 -1.3,-0.1 -1.8,-0.18 -2.18,-0.36 -0.3,-0.13 -0.48,-0.3 -0.58,-0.54 -0.05,-0.13 -0.06,-0.18 -0.05,-0.46 0,-0.26 0.01,-0.37 0.06,-0.53 0.15,-0.53 0.51,-0.89 0.99,-1 0.24,-0.05 0.35,-0.05 0.57,-0.01 0.26,0.04 0.48,0.16 0.97,0.5 0.24,0.17 0.54,0.36 0.66,0.43 0.6,0.33 1.29,0.44 2.19,0.36 0.78,-0.07 1.26,-0.2 1.74,-0.45 0.48,-0.25 0.77,-0.55 0.97,-0.99 0.15,-0.34 0.2,-0.57 0.19,-1.08 0.01,-1.02 -0.19,-2.29 -0.47,-3.13 -0.33,-0.99 -0.67,-1.55 -1.68,-2.75 -0.74,-0.87 -0.99,-1.42 -1.01,-2.25 -0.01,-0.21 0,-0.36 0.03,-0.45 0.11,-0.45 0.43,-0.77 0.92,-0.91 0.22,-0.07 0.77,-0.08 0.99,-0.03 0.62,0.15 1.04,0.6 1.33,1.44 0.13,0.36 0.22,0.74 0.44,1.84 0.29,1.48 0.47,2.09 0.77,2.69 0.34,0.66 0.84,1.16 1.42,1.43 1.02,0.48 2.6,0.44 3.63,-0.08 0.46,-0.22 0.92,-0.64 1.23,-1.1 0.18,-0.27 0.49,-0.92 0.62,-1.31 0.05,-0.15 0.18,-0.6 0.29,-1.01 0.28,-0.99 0.39,-1.29 0.6,-1.58 0.12,-0.18 0.23,-0.27 0.4,-0.36 0.13,-0.07 0.17,-0.07 0.43,-0.08 0.34,-0.01 0.53,0.03 0.81,0.17 0.59,0.28 0.91,0.9 0.91,1.69 -0.01,0.32 -0.07,0.54 -0.26,0.84 -0.17,0.27 -0.62,0.74 -1.18,1.22 -0.59,0.51 -0.84,0.74 -1.03,0.97 -0.45,0.56 -0.52,0.85 -0.41,1.87 0.2,1.88 0.85,2.83 2.25,3.25 0.56,0.17 1.23,0.24 2.07,0.21 0.95,-0.02 1.36,-0.13 2.38,-0.63 0.98,-0.47 1.5,-0.61 2.44,-0.64 0.39,-0.01 0.47,-0.01 0.65,0.04 0.43,0.1 0.72,0.26 1.01,0.55 0.37,0.38 0.53,0.9 0.44,1.41l0 0z"/>
     <path class="fil1" d="M25.02 44.21c-0.02,0.25 -0.12,0.6 -0.2,0.78 -0.15,0.29 -0.42,0.51 -0.72,0.58 -0.43,0.09 -0.79,0 -1.13,-0.3 -0.28,-0.25 -0.47,-0.56 -0.62,-1.03 -0.11,-0.34 -0.16,-0.64 -0.18,-1.18 -0.05,-0.78 0.02,-1.3 0.21,-1.72 0.1,-0.24 0.22,-0.39 0.38,-0.49 0.09,-0.06 0.14,-0.08 0.29,-0.08 0.15,0 0.2,0.01 0.36,0.08 0.61,0.28 1.23,1.14 1.51,2.07 0.07,0.22 0.08,0.31 0.1,0.68 0.01,0.24 0.01,0.52 0,0.61l0 0z"/>
     <path class="fil1" d="M6.55 20.84c-0.07,0.52 -0.26,0.88 -0.61,1.18 -0.31,0.26 -0.63,0.38 -1.08,0.39 -0.25,0.01 -0.32,0 -0.49,-0.05 -0.28,-0.08 -0.5,-0.21 -0.71,-0.41 -0.21,-0.19 -0.35,-0.4 -0.45,-0.68 -0.06,-0.17 -0.07,-0.23 -0.08,-0.52 -0.01,-0.28 0,-0.34 0.05,-0.52 0.08,-0.28 0.21,-0.5 0.41,-0.71 0.19,-0.21 0.41,-0.35 0.68,-0.45 0.17,-0.06 0.24,-0.07 0.49,-0.08 0.21,0 0.35,0 0.46,0.03 0.61,0.15 1.1,0.61 1.27,1.2 0.04,0.17 0.08,0.51 0.06,0.62z"/>
    </g>
   </g>
   <g>
    <path class="fil2" d="M15.17 29.99l9.64 -5.05 -3.4 0.88c0.43,-1.62 1.88,-2.83 3.64,-2.88l6.88 -0.17c2.14,-0.05 3.91,1.63 3.96,3.77l0.11 4.4 2.07 2.57 9.21 6.06c1.19,0.79 1.52,2.39 0.74,3.58 -0.79,1.19 -2.39,1.53 -3.59,0.74l-8.24 -5.43 0.07 2.89 -14.61 0 -0.17 -6.49 6.05 -5.49 -9.05 4.56 -0.79 7.55c1.21,0.26 2.28,1.48 1.95,2.68 -0.04,0.17 -0.15,0.39 -0.15,0.38 0,0.01 0,0.02 -0.01,0.03 0.37,0.17 0.63,0.28 1,0.45 0.3,0.14 0.43,0.5 0.29,0.8l-0.52 1.16c-0.14,0.3 -0.5,0.43 -0.8,0.3l-1.1 -0.51c-1.08,2.09 -2.12,4.13 -2.59,5.05 -0.15,0.28 -0.5,0.4 -0.79,0.27l-1.04 -0.47c-0.29,-0.14 -0.42,-0.48 -0.31,-0.77 0.27,-0.68 0.77,-1.93 1.35,-3.37 0.11,-0.27 0.22,-0.55 0.33,-0.83l-0.93 0.06c-0.58,0.05 -1.09,-0.4 -1.13,-0.98 -0.03,-0.44 0.21,-0.84 0.58,-1.02 -0.75,-0.52 -1.23,-1.16 -1.1,-2.41l1.08 -10.29c0.09,-0.83 0.58,-1.61 1.37,-2.02zm19.83 -14.86c-0.03,3.06 -2.49,5.56 -5.57,5.64 -3.16,0.08 -5.78,-2.42 -5.86,-5.57 0,-0.29 0.01,-0.57 0.04,-0.84 -0.82,-0.23 -1.63,-0.5 -2.43,-0.8 -0.06,-0.03 -0.12,-0.05 -0.18,-0.08 -0.93,-0.47 -1.38,-1.58 -1,-2.58 0.41,-1.05 1.59,-1.58 2.65,-1.18 0.44,0.17 0.89,0.32 1.34,0.46l1.61 -4.71c0.13,-0.39 0.55,-0.61 0.95,-0.49l2.35 0.72c0.65,0.2 1.35,0.24 2.02,0.13l2.43 -0.39c0.41,-0.06 0.8,0.21 0.88,0.61l0.96 4.89c0.46,-0.08 0.93,-0.17 1.39,-0.28 1.1,-0.26 2.21,0.42 2.47,1.53 0.26,1.1 -0.43,2.21 -1.53,2.47 -0.84,0.19 -1.68,0.35 -2.52,0.47zm1.32 28.59l0.03 1.35 5.86 7.89c0.28,0.38 0.47,0.81 0.56,1.28l2.94 15.56c0.32,1.69 -0.79,3.32 -2.47,3.63 -1.69,0.32 -3.32,-0.79 -3.63,-2.47l-2.82 -14.87 -7.11 -9.58 -1.61 0.04 4.27 11.01c0.36,0.94 0.25,1.99 -0.3,2.82l-7.76 11.93c-0.93,1.44 -2.86,1.85 -4.3,0.91 -1.44,-0.94 -1.84,-2.86 -0.91,-4.3l6.89 -10.59 -3.66 -9.43c-0.33,-0.83 -0.5,-1.71 -0.53,-2.59l-0.06 -2.59 14.61 0zm-16.98 -18.29l-5.14 2.69c-0.71,0.37 -1.29,0.9 -1.71,1.53 -0.44,0.64 -0.71,1.38 -0.79,2.15l-1.08 10.29c-0.11,1.07 0.07,1.93 0.46,2.66 0.04,0.08 0.08,0.15 0.12,0.22 -0.05,0.23 -0.07,0.47 -0.07,0.71 0,0.01 0,0.03 0,0.05l0 0 0 0c0,0.03 0,0.05 0,0.08 0,0.02 0,0.05 0,0.07 0.07,0.87 0.47,1.64 1.08,2.17l0.01 0c0,0 0,0 0,0 0.06,0.05 0.13,0.1 0.19,0.15l-0.7 1.76c-0.01,0.03 -0.03,0.07 -0.04,0.1 -0.27,0.67 -0.25,1.39 0,2.02 0.25,0.62 0.73,1.15 1.39,1.45l1.04 0.47c0.65,0.3 1.37,0.32 2.01,0.1l0 -0.01c0.64,-0.22 1.19,-0.67 1.52,-1.31l1.73 -3.36c0.29,0.03 0.59,0.02 0.87,-0.04 0.03,0.1 0.07,0.19 0.1,0.28l3.28 8.42 -6.3 9.69c-0.79,1.21 -1.01,2.62 -0.74,3.92l0.01 0c0.27,1.31 1.05,2.51 2.26,3.29 1.2,0.79 2.61,1.01 3.91,0.74 1.31,-0.28 2.51,-1.06 3.3,-2.26l7.76 -11.93c0.46,-0.7 0.73,-1.5 0.82,-2.31 0.08,-0.8 -0.03,-1.63 -0.33,-2.41l-0.44 -1.14 0.95 1.29 2.72 14.39c0.27,1.41 1.09,2.59 2.19,3.34 1.1,0.75 2.49,1.08 3.9,0.81 1.42,-0.26 2.6,-1.08 3.35,-2.18 0.75,-1.1 1.08,-2.49 0.81,-3.91l-2.94 -15.56c-0.07,-0.39 -0.19,-0.77 -0.35,-1.12 -0.15,-0.36 -0.35,-0.71 -0.59,-1.02l-5.46 -7.36 -0.01 -0.51c0,-0.04 0,-0.08 0,-0.12 0,-0.46 -0.15,-0.89 -0.4,-1.24 0.05,-0.06 0.09,-0.13 0.12,-0.21l5.13 3.38c1.08,0.71 2.35,0.92 3.52,0.68 1.18,-0.25 2.26,-0.94 2.97,-2.02 0.72,-1.09 0.92,-2.35 0.68,-3.52 -0.24,-1.18 -0.93,-2.26 -2.02,-2.98l-8.92 -5.87 -1.42 -1.76 -0.1 -3.69c-0.04,-1.65 -0.74,-3.13 -1.85,-4.18 -0.54,-0.52 -1.18,-0.93 -1.88,-1.22 0.21,-0.17 0.41,-0.35 0.59,-0.54 0.97,-0.98 1.68,-2.22 2.03,-3.6 0.4,-0.08 0.77,-0.16 1.12,-0.24 1.11,-0.26 2.02,-0.96 2.58,-1.87 0.56,-0.9 0.78,-2.02 0.52,-3.13 -0.26,-1.12 -0.96,-2.03 -1.87,-2.59 -0.7,-0.43 -1.52,-0.66 -2.37,-0.62l-0.56 -2.85c-0.15,-0.76 -0.59,-1.4 -1.18,-1.81 -0.59,-0.41 -1.33,-0.6 -2.1,-0.48l-2.43 0.4c-0.17,0.02 -0.35,0.03 -0.55,0.02 -0.19,-0.02 -0.37,-0.05 -0.53,-0.1l-2.17 -0.65c-0.06,-0.03 -0.12,-0.05 -0.18,-0.07 -0.73,-0.22 -1.5,-0.13 -2.14,0.2 -0.65,0.33 -1.17,0.9 -1.42,1.64l-0.94 2.74c-0.84,-0.15 -1.69,-0.03 -2.44,0.3 -0.97,0.44 -1.78,1.24 -2.19,2.31 -0.38,1 -0.35,2.06 0.01,2.99 0.37,0.95 1.07,1.75 2.03,2.23l0 0c0.07,0.04 0.15,0.07 0.23,0.1l0.08 0.04c0,0 0,0 0.01,0l0 0c0.01,0.01 0.03,0.01 0.04,0.02 0.29,0.11 0.65,0.24 1.08,0.38 0.21,1.89 1.09,3.58 2.39,4.81 0.07,0.07 0.14,0.14 0.22,0.21 -1,0.17 -1.91,0.59 -2.67,1.19 -1,0.79 -1.74,1.9 -2.08,3.16l0.01 0c-0.02,0.05 -0.03,0.1 -0.04,0.15z"/>
    <path id="_1" class="fil3" d="M15.17 29.99l9.64 -5.05 -3.4 0.88c0.43,-1.62 1.88,-2.83 3.64,-2.88l6.88 -0.17c2.14,-0.05 3.91,1.63 3.96,3.77l0.11 4.4 2.07 2.57 9.21 6.06c1.19,0.79 1.52,2.39 0.74,3.58 -0.79,1.19 -2.39,1.53 -3.59,0.74l-8.24 -5.43 0.07 2.89 -14.61 0 -0.17 -6.49 6.05 -5.49 -9.05 4.56 -0.79 7.55c1.21,0.26 2.28,1.48 1.95,2.68 -0.04,0.17 -0.15,0.39 -0.15,0.38 0,0.01 0,0.02 -0.01,0.03 0.37,0.17 0.63,0.28 1,0.45 0.3,0.14 0.43,0.5 0.29,0.8l-0.52 1.16c-0.14,0.3 -0.5,0.43 -0.8,0.3l-1.1 -0.51c-1.08,2.09 -2.12,4.13 -2.59,5.05 -0.15,0.28 -0.5,0.4 -0.79,0.27l-1.04 -0.47c-0.29,-0.14 -0.42,-0.48 -0.31,-0.77 0.27,-0.68 0.77,-1.93 1.35,-3.37 0.11,-0.27 0.22,-0.55 0.33,-0.83l-0.93 0.06c-0.58,0.05 -1.09,-0.4 -1.13,-0.98 -0.03,-0.44 0.21,-0.84 0.58,-1.02 -0.75,-0.52 -1.23,-1.16 -1.1,-2.41l1.08 -10.29c0.09,-0.83 0.58,-1.61 1.37,-2.02zm7.48 -20.27c0.44,0.17 0.89,0.32 1.34,0.46l1.61 -4.71c0.13,-0.39 0.55,-0.61 0.95,-0.49l2.35 0.72c0.65,0.2 1.35,0.24 2.02,0.13l2.43 -0.39c0.41,-0.06 0.8,0.21 0.88,0.61l0.96 4.89c0.46,-0.08 0.93,-0.17 1.39,-0.28 1.1,-0.26 2.21,0.42 2.47,1.53 0.26,1.1 -0.43,2.21 -1.53,2.47 -0.84,0.19 -1.68,0.35 -2.52,0.47 -0.03,3.06 -2.49,5.56 -5.57,5.64 -3.16,0.08 -5.78,-2.42 -5.86,-5.57 0,-0.29 0.01,-0.57 0.04,-0.84 -0.82,-0.23 -1.63,-0.5 -2.43,-0.8 -0.06,-0.03 -0.12,-0.05 -0.18,-0.08 -0.93,-0.47 -1.38,-1.58 -1,-2.58 0.41,-1.05 1.59,-1.58 2.65,-1.18zm13.67 34l0.03 1.35 5.86 7.89c0.28,0.38 0.47,0.81 0.56,1.28l2.94 15.56c0.32,1.69 -0.79,3.32 -2.47,3.63 -1.69,0.32 -3.32,-0.79 -3.63,-2.47l-2.82 -14.87 -7.11 -9.58 -1.61 0.04 4.27 11.01c0.36,0.94 0.25,1.99 -0.3,2.82l-7.76 11.93c-0.93,1.44 -2.86,1.85 -4.3,0.91 -1.44,-0.94 -1.84,-2.86 -0.91,-4.3l6.89 -10.59 -3.66 -9.43c-0.33,-0.83 -0.5,-1.71 -0.53,-2.59l-0.06 -2.59 14.61 0z"/>
   </g>
   <g id="_1727076618160">
    <circle class="fil4" cx="31.1" cy="30.18" r="1.07"/>
    <g>
     <line class="fil0 str0" x1="31.1" y1="30.18" x2="31.1" y2= "35.21" />
    </g>
   </g>
  </g>
 </g>
</svg>
