<?xml version="1.0" encoding="UTF-8"?>
<!DOCTYPE svg PUBLIC "-//W3C//DTD SVG 1.1//EN" "http://www.w3.org/Graphics/SVG/1.1/DTD/svg11.dtd">
<!-- Creator: CorelDRAW 2021 (64-Bit) -->
<svg xmlns="http://www.w3.org/2000/svg" xml:space="preserve" width="231px" height="207px" version="1.1" style="shape-rendering:geometricPrecision; text-rendering:geometricPrecision; image-rendering:optimizeQuality; fill-rule:evenodd; clip-rule:evenodd"
viewBox="0 0 215.45 192.77"
 xmlns:xlink="http://www.w3.org/1999/xlink"
 xmlns:xodm="http://www.corel.com/coreldraw/odm/2003">
 <defs>
  <style type="text/css">
   <![CDATA[
    .str0 {stroke:black;stroke-width:6.09;stroke-linecap:round;stroke-linejoin:round;stroke-miterlimit:22.9256}
    .fil1 {fill:none;fill-rule:nonzero}
    .fil0 {fill:white;fill-rule:nonzero}
   ]]>
  </style>
 </defs>
 <g id="Capa_x0020_1">
  <metadata id="CorelCorpID_0Corel-Layer"/>
  <g>
   <path class="fil0" d="M55.68 154.32l-0.04 -0.26 -14.93 4.19 -16.52 1.71c5.83,-13.89 9.97,-17.4 13.42,-26.52l-5.94 -4.96 -16.48 -2.95 17.68 -23.67 -4.58 -2.01 -22.18 -13.27 22.37 -11.43 -6.15 -26.78 31.6 11.39 -2.68 -6.9 -4.79 -27.36 32.14 12.21 0.05 -0.19 8.61 -32.99 18.83 27.47 3.38 5.64 6.16 -10.48 14.37 -24.1 8.29 30.34 4.12 6.68 30.72 -14.87 0.64 33.92 8.42 0.7 24.05 2.66 -13.45 19.06 -5.87 6.87 20.76 18.58 -22.72 14.68 -2.51 -0.37 15.35 27.12 -31.15 -1.92c-0.78,12.21 -0.37,23.54 1.64,35.55 -6.12,-9.07 -14.97,-13.01 -24.5,-18.23l-15.83 25.9c-5.34,-8.31 -11.04,-16.39 -16.12,-24.86l-17.01 24.7c-4.44,-9.03 -7.98,-16.4 -13.82,-24.63l-22.57 22.24 -2.76 -32.86 0 0zm0 0l0 0 0 0z"/>
  </g>
  <path class="fil1 str0" d="M55.64 154.05c0,0 -19.16,3.56 -31.44,5.89 4.45,-5.66 13.91,-29.76 13.91,-29.76l-25.98 -5.51 20.75 -22.82 -29.83 -16.12 25.45 -10.6 -9.23 -27.62 34.67 12.24 -10.53 -35.11 32.14 12.22 0.05 -0.2 8.61 -32.99c8.01,11.76 25.27,33.96 25.27,33.96 0,0 15.11,-22.61 20.54,-34.58 4.09,12.58 12.41,37.02 12.41,37.02l30.72 -14.87 0.64 33.92 32.47 3.36 -19.32 25.93 25.46 19.85 -29.93 13.04c0,0 9.17,16.35 15.35,27.12l-34.22 -2.77c0,0 2.71,24.39 4.71,36.4 -11.03,-7.81 -27.57,-19.07 -27.57,-19.07l-12.76 26.74 -16.12 -24.86 -17.01 24.71c-4.45,-9.03 -13.82,-24.64 -13.82,-24.64l-22.57 22.24 -2.82 -33.12z"/>
 </g>
</svg>
