<?xml version="1.0" encoding="UTF-8"?>
<!DOCTYPE svg PUBLIC "-//W3C//DTD SVG 1.1//EN" "http://www.w3.org/Graphics/SVG/1.1/DTD/svg11.dtd">
<!-- Creator: CorelDRAW 2021 (64-Bit) -->
<svg xmlns="http://www.w3.org/2000/svg" xml:space="preserve" width="89px" height="100px" version="1.1" style="shape-rendering:geometricPrecision; text-rendering:geometricPrecision; image-rendering:optimizeQuality; fill-rule:evenodd; clip-rule:evenodd"
viewBox="0 0 36.07 40.56"
 xmlns:xlink="http://www.w3.org/1999/xlink"
 xmlns:xodm="http://www.corel.com/coreldraw/odm/2003">
 <defs>
  <style type="text/css">
   <![CDATA[
    .fil1 {fill:#573A32;fill-rule:nonzero}
    .fil0 {fill:#FEDEA1;fill-rule:nonzero}
   ]]>
  </style>
 </defs>
 <g id="Capa_x0020_1">
  <metadata id="CorelCorpID_0Corel-Layer"/>
  <g id="_1321087564832">
   <path class="fil0" d="M18.04 39.54c-1.4,0 -2.54,-1.14 -2.54,-2.53 0,-0.65 0.25,-1.25 0.67,-1.71l-3.4 -5.9 -6.81 0c-0.19,0.6 -0.59,1.12 -1.15,1.44 -0.38,0.22 -0.82,0.34 -1.26,0.34 -0.9,0 -1.75,-0.49 -2.2,-1.27 -0.7,-1.21 -0.28,-2.76 0.93,-3.46 0.38,-0.22 0.81,-0.34 1.25,-0.34 0.19,0 0.38,0.02 0.56,0.06l3.41 -5.89 -3.41 -5.9c-0.18,0.04 -0.37,0.06 -0.56,0.06 -0.43,0 -0.87,-0.11 -1.25,-0.33 -1.21,-0.7 -1.63,-2.25 -0.93,-3.46 0.45,-0.79 1.3,-1.27 2.2,-1.27 0.44,0 0.88,0.12 1.27,0.34 0.55,0.32 0.95,0.84 1.14,1.43l6.81 0 3.4 -5.9c-0.42,-0.45 -0.67,-1.06 -0.67,-1.7 0,-1.4 1.14,-2.54 2.54,-2.54 1.39,0 2.53,1.14 2.53,2.54 0,0.64 -0.25,1.25 -0.67,1.7l3.4 5.9 6.82 0c0.18,-0.59 0.58,-1.11 1.14,-1.43 0.38,-0.22 0.82,-0.34 1.26,-0.34 0.91,0 1.75,0.48 2.2,1.27 0.7,1.21 0.28,2.76 -0.93,3.46 -0.38,0.22 -0.81,0.33 -1.25,0.33 -0.19,0 -0.38,-0.02 -0.56,-0.06l-3.41 5.9 3.41 5.89c0.18,-0.04 0.37,-0.06 0.56,-0.06 0.44,0 0.87,0.12 1.25,0.34 1.21,0.7 1.63,2.25 0.93,3.46 -0.45,0.78 -1.29,1.27 -2.2,1.27 -0.44,0 -0.88,-0.12 -1.26,-0.34 -0.56,-0.32 -0.96,-0.84 -1.14,-1.44l-6.82 0 -3.4 5.9c0.42,0.46 0.67,1.06 0.67,1.71 0,1.39 -1.14,2.53 -2.53,2.53z"/>
   <path class="fil1" d="M3.53 25.1c-0.61,0 -1.22,0.16 -1.76,0.47 -1.69,0.98 -2.27,3.15 -1.3,4.85 0.64,1.09 1.81,1.77 3.08,1.77 0.62,0 1.23,-0.16 1.77,-0.47 0.55,-0.32 0.99,-0.77 1.29,-1.3l5.57 0 2.79 4.82c-0.31,0.53 -0.48,1.14 -0.48,1.77 0,1.95 1.59,3.55 3.54,3.55 1.96,0 3.55,-1.6 3.55,-3.55 0,-0.63 -0.17,-1.24 -0.48,-1.77l2.79 -4.82 5.57 0c0.3,0.53 0.74,0.98 1.29,1.3 0.54,0.31 1.15,0.47 1.77,0.47 1.27,0 2.44,-0.68 3.08,-1.77 0.97,-1.7 0.39,-3.87 -1.3,-4.85 -0.54,-0.31 -1.15,-0.47 -1.76,-0.47 -0.01,0 -0.01,0 -0.01,0l-2.79 -4.82 2.79 -4.82c0,0 0.01,0 0.01,0 0.61,0 1.22,-0.17 1.76,-0.47 1.69,-0.98 2.27,-3.16 1.3,-4.85 -0.63,-1.1 -1.81,-1.78 -3.08,-1.78 -0.62,0 -1.23,0.17 -1.77,0.48 -0.55,0.32 -0.99,0.77 -1.29,1.3l-5.57 0 -2.79 -4.82c0.31,-0.53 0.48,-1.14 0.48,-1.77 0,-1.96 -1.59,-3.55 -3.54,-3.55 -1.96,0 -3.55,1.59 -3.55,3.55 0,0.63 0.17,1.24 0.48,1.76l-2.79 4.83 -5.57 0c-0.3,-0.53 -0.74,-0.98 -1.29,-1.3 -0.54,-0.31 -1.15,-0.48 -1.77,-0.48 -1.26,0 -2.44,0.68 -3.07,1.78 -0.98,1.69 -0.4,3.87 1.29,4.85 0.54,0.3 1.15,0.47 1.76,0.47 0.01,0 0.01,0 0.02,0l2.78 4.82 -2.78 4.82c-0.01,0 -0.01,0 -0.02,0zm5.14 -4.82l-4.16 -7.21c-0.28,0.23 -0.62,0.36 -0.98,0.36 -0.25,0 -0.51,-0.06 -0.74,-0.2 -0.73,-0.42 -0.98,-1.35 -0.56,-2.08 0.28,-0.49 0.79,-0.76 1.32,-0.76 0.26,0 0.52,0.07 0.76,0.21 0.56,0.32 0.83,0.96 0.73,1.57l8.31 0 4.16 -7.21c-0.58,-0.21 -1,-0.76 -1,-1.41 0,-0.84 0.69,-1.52 1.53,-1.52 0.84,0 1.52,0.68 1.52,1.52 0,0.65 -0.42,1.2 -1,1.41l4.16 7.21 8.32 0c-0.11,-0.61 0.16,-1.25 0.72,-1.57 0.24,-0.14 0.5,-0.21 0.76,-0.21 0.53,0 1.04,0.27 1.32,0.76 0.42,0.73 0.17,1.66 -0.56,2.08 -0.23,0.14 -0.49,0.2 -0.74,0.2 -0.36,0 -0.7,-0.13 -0.98,-0.36l-4.16 7.21 4.16 7.2c0.28,-0.23 0.63,-0.36 0.98,-0.36 0.25,0 0.51,0.07 0.74,0.2 0.73,0.42 0.98,1.35 0.56,2.08 -0.28,0.49 -0.79,0.76 -1.32,0.76 -0.26,0 -0.52,-0.06 -0.76,-0.2 -0.56,-0.33 -0.83,-0.96 -0.72,-1.57l-8.32 0 -4.16 7.2c0.58,0.22 1,0.76 1,1.42 0,0.84 -0.69,1.52 -1.53,1.52 -0.84,0 -1.52,-0.68 -1.52,-1.52 0,-0.66 0.42,-1.2 1,-1.42l-4.16 -7.2 -8.31 0c0.1,0.61 -0.17,1.24 -0.73,1.57 -0.24,0.14 -0.5,0.2 -0.76,0.2 -0.53,0 -1.04,-0.27 -1.32,-0.76 -0.42,-0.72 -0.17,-1.65 0.56,-2.08 0.23,-0.13 0.49,-0.19 0.74,-0.19 0.36,0 0.7,0.12 0.98,0.35l4.16 -7.2z"/>
  </g>
 </g>
</svg>
