<?xml version="1.0" encoding="UTF-8"?>
<!DOCTYPE svg PUBLIC "-//W3C//DTD SVG 1.1//EN" "http://www.w3.org/Graphics/SVG/1.1/DTD/svg11.dtd">
<!-- Creator: CorelDRAW 2021 (64-Bit) -->
<svg xmlns="http://www.w3.org/2000/svg" xml:space="preserve" width="89px" height="100px" version="1.1" style="shape-rendering:geometricPrecision; text-rendering:geometricPrecision; image-rendering:optimizeQuality; fill-rule:evenodd; clip-rule:evenodd"
viewBox="0 0 15.12 16.99"
 xmlns:xlink="http://www.w3.org/1999/xlink"
 xmlns:xodm="http://www.corel.com/coreldraw/odm/2003">
 <defs>
  <style type="text/css">
   <![CDATA[
    .fil1 {fill:black;fill-rule:nonzero}
    .fil0 {fill:#FEDEA1;fill-rule:nonzero}
   ]]>
  </style>
 </defs>
 <g id="Capa_x0020_1">
  <metadata id="CorelCorpID_0Corel-Layer"/>
  <path class="fil0" d="M7.56 16.57c-0.59,0 -1.06,-0.48 -1.06,-1.06 0,-0.27 0.1,-0.53 0.28,-0.72l-1.43 -2.47 -2.85 0c-0.08,0.25 -0.25,0.47 -0.48,0.6 -0.16,0.1 -0.35,0.14 -0.53,0.14 -0.38,0 -0.73,-0.2 -0.92,-0.53 -0.3,-0.5 -0.12,-1.15 0.39,-1.45 0.16,-0.09 0.34,-0.14 0.52,-0.14 0.08,0 0.16,0.01 0.24,0.03l1.42 -2.47 -1.42 -2.47c-0.08,0.01 -0.16,0.02 -0.24,0.02 -0.18,0 -0.36,-0.05 -0.52,-0.14 -0.51,-0.29 -0.69,-0.94 -0.39,-1.45 0.19,-0.33 0.54,-0.53 0.92,-0.53 0.18,0 0.37,0.05 0.53,0.14 0.23,0.14 0.4,0.35 0.48,0.6l2.85 0 1.43 -2.47c-0.18,-0.19 -0.28,-0.44 -0.28,-0.71 0,-0.59 0.47,-1.07 1.06,-1.07 0.58,0 1.06,0.48 1.06,1.07 0,0.27 -0.11,0.52 -0.28,0.71l1.43 2.47 2.85 0c0.08,-0.25 0.24,-0.46 0.48,-0.6 0.16,-0.09 0.34,-0.14 0.53,-0.14 0.38,0 0.73,0.2 0.92,0.53 0.29,0.51 0.12,1.16 -0.39,1.45 -0.16,0.09 -0.34,0.14 -0.52,0.14 -0.08,0 -0.16,-0.01 -0.24,-0.02l-1.43 2.47 1.43 2.47c0.08,-0.02 0.16,-0.03 0.23,-0.03 0.19,0 0.37,0.05 0.53,0.14 0.51,0.3 0.68,0.95 0.39,1.45 -0.19,0.33 -0.54,0.53 -0.92,0.53 -0.19,0 -0.37,-0.04 -0.53,-0.14 -0.24,-0.13 -0.4,-0.35 -0.48,-0.6l-2.85 0 -1.43 2.47c0.17,0.19 0.28,0.45 0.28,0.72 0,0.58 -0.48,1.06 -1.06,1.06z"/>
  <path class="fil1" d="M1.48 10.52c-0.26,0 -0.51,0.07 -0.74,0.19 -0.71,0.41 -0.95,1.33 -0.54,2.04 0.26,0.45 0.76,0.74 1.29,0.74 0.26,0 0.51,-0.07 0.74,-0.2 0.23,-0.13 0.41,-0.32 0.54,-0.54l2.33 0 1.17 2.02c-0.13,0.22 -0.2,0.47 -0.2,0.74 0,0.82 0.67,1.48 1.49,1.48 0.82,0 1.48,-0.66 1.48,-1.48 0,-0.27 -0.07,-0.52 -0.2,-0.74l1.17 -2.02 2.33 0c0.13,0.22 0.32,0.41 0.54,0.54 0.23,0.13 0.49,0.2 0.75,0.2 0.53,0 1.02,-0.29 1.29,-0.74 0.41,-0.71 0.16,-1.63 -0.55,-2.04 -0.22,-0.13 -0.48,-0.19 -0.74,-0.19 0,0 0,0 0,0l-1.17 -2.02 1.17 -2.02c0,0 0,0 0,0 0.26,0 0.52,-0.07 0.74,-0.2 0.71,-0.41 0.96,-1.32 0.55,-2.03 -0.27,-0.46 -0.76,-0.74 -1.29,-0.74 -0.26,0 -0.52,0.06 -0.75,0.19 -0.22,0.14 -0.41,0.33 -0.54,0.55l-2.33 0 -1.17 -2.02c0.13,-0.22 0.2,-0.48 0.2,-0.74 0,-0.82 -0.66,-1.49 -1.48,-1.49 -0.82,0 -1.49,0.67 -1.49,1.49 0,0.26 0.07,0.52 0.2,0.74l-1.17 2.02 -2.33 0c-0.13,-0.22 -0.31,-0.41 -0.54,-0.55 -0.23,-0.13 -0.48,-0.2 -0.74,-0.2 -0.53,0 -1.03,0.29 -1.29,0.75 -0.41,0.71 -0.17,1.62 0.54,2.03 0.23,0.13 0.48,0.2 0.74,0.2 0,0 0,0 0.01,0l1.16 2.02 -1.16 2.02c-0.01,0 -0.01,0 -0.01,0zm2.15 -2.02l-1.74 -3.02c-0.12,0.09 -0.26,0.15 -0.41,0.15 -0.11,0 -0.21,-0.03 -0.31,-0.09 -0.31,-0.17 -0.41,-0.56 -0.24,-0.87 0.12,-0.2 0.34,-0.32 0.56,-0.32 0.11,0 0.21,0.03 0.32,0.09 0.23,0.14 0.34,0.4 0.3,0.66l3.49 0 1.74 -3.02c-0.24,-0.09 -0.42,-0.32 -0.42,-0.59 0,-0.35 0.29,-0.64 0.64,-0.64 0.35,0 0.63,0.29 0.63,0.64 0,0.27 -0.17,0.5 -0.41,0.59l1.74 3.02 3.49 0c-0.05,-0.26 0.06,-0.52 0.3,-0.66 0.1,-0.06 0.21,-0.09 0.32,-0.09 0.22,0 0.43,0.12 0.55,0.32 0.18,0.31 0.07,0.7 -0.23,0.87 -0.1,0.06 -0.21,0.09 -0.32,0.09 -0.14,0 -0.29,-0.06 -0.41,-0.15l-1.74 3.02 1.74 3.02c0.12,-0.1 0.27,-0.15 0.41,-0.15 0.11,0 0.22,0.02 0.32,0.08 0.3,0.18 0.41,0.57 0.23,0.87 -0.12,0.21 -0.33,0.32 -0.55,0.32 -0.11,0 -0.22,-0.03 -0.32,-0.09 -0.24,-0.13 -0.35,-0.4 -0.3,-0.65l-3.49 0 -1.74 3.01c0.24,0.09 0.41,0.32 0.41,0.6 0,0.35 -0.28,0.63 -0.63,0.63 -0.35,0 -0.64,-0.28 -0.64,-0.63 0,-0.28 0.17,-0.51 0.42,-0.6l-1.74 -3.01 -3.49 0c0.04,0.25 -0.07,0.52 -0.3,0.65 -0.1,0.06 -0.21,0.09 -0.32,0.09 -0.22,0 -0.44,-0.12 -0.56,-0.32 -0.17,-0.3 -0.07,-0.69 0.24,-0.87 0.1,-0.06 0.2,-0.08 0.31,-0.08 0.15,0 0.29,0.05 0.41,0.15l1.74 -3.02z"/>
 </g>
</svg>
