<?xml version="1.0" encoding="UTF-8"?>
<!DOCTYPE svg PUBLIC "-//W3C//DTD SVG 1.1//EN" "http://www.w3.org/Graphics/SVG/1.1/DTD/svg11.dtd">
<!-- Creator: CorelDRAW 2021 (64-Bit) -->
<svg xmlns="http://www.w3.org/2000/svg" xml:space="preserve" width="512px" height="512px" version="1.1" style="shape-rendering:geometricPrecision; text-rendering:geometricPrecision; image-rendering:optimizeQuality; fill-rule:evenodd; clip-rule:evenodd"
viewBox="0 0 82.55 82.55"
 xmlns:xlink="http://www.w3.org/1999/xlink"
 xmlns:xodm="http://www.corel.com/coreldraw/odm/2003">
 <defs>
  <style type="text/css">
   <![CDATA[
    .fil3 {fill:none}
    .fil0 {fill:whitesmoke}
    .fil2 {fill:#26170F;fill-rule:nonzero}
    .fil1 {fill:#A58B71;fill-rule:nonzero}
   ]]>
  </style>
 </defs>
 <g id="Capa_x0020_1">
  <metadata id="CorelCorpID_0Corel-Layer"/>
  <g id="_2721514597280">
   <path class="fil0" d="M66.58 52.87c-5.39,27.53 -45.19,27.54 -50.57,0 -21.89,-5.86 -13.07,-29.25 2.04,-27.75 1.59,-5.94 3.05,-18.25 13.78,-15.76 11.15,2.58 7.79,2.58 18.93,0 10.74,-2.49 12.2,9.81 13.79,15.76 15.43,-1.53 23.57,21.99 2.03,27.75z"/>
   <path class="fil1" d="M63.92 32.43c-1.47,0.45 -2.95,0.84 -4.43,1.2l-4.17 -15.59c-0.35,-1.29 -1.67,-2.08 -2.98,-1.78 -11.69,2.71 -10.4,2.71 -22.09,0 -1.31,-0.3 -2.62,0.49 -2.97,1.78l-4.17 15.59c-1.49,-0.36 -2.96,-0.75 -4.43,-1.2 -8.37,-2.58 -12.28,10.14 -3.91,12.72 2.6,0.8 5.23,1.48 7.88,2.04 -0.97,25.44 38.26,25.44 37.3,0 2.64,-0.56 5.27,-1.24 7.88,-2.04 8.37,-2.58 4.45,-15.3 -3.91,-12.72z"/>
   <path class="fil2" d="M63.92 32.43c-1.47,0.45 -2.95,0.84 -4.43,1.2l-4.17 -15.59c-0.35,-1.29 -1.67,-2.08 -2.98,-1.78 -10.89,2.52 -10.72,2.63 -22.09,0 -1.31,-0.3 -2.62,0.49 -2.97,1.78l-4.17 15.59c-1.49,-0.36 -2.96,-0.75 -4.43,-1.2 -8.37,-2.58 -12.28,10.14 -3.91,12.72l7.88 2.04c12.03,3.12 25.26,3.12 37.3,0l7.88 -2.04c8.37,-2.58 4.45,-15.3 -3.91,-12.72z"/>
   <path class="fil2" d="M63.92 32.43l-4.43 1.2c-11.7,3.19 -24.68,3.19 -36.38,0l-4.43 -1.2c-8.37,-2.58 -12.28,10.14 -3.91,12.72l7.88 2.04c12.03,3.12 25.26,3.12 37.3,0l7.88 -2.04c8.37,-2.58 4.45,-15.3 -3.91,-12.72z"/>
  </g>
  <rect class="fil3" width="82.55" height="82.55"/>
 </g>
</svg>
