<?xml version="1.0" encoding="UTF-8"?>
<!DOCTYPE svg PUBLIC "-//W3C//DTD SVG 1.1//EN" "http://www.w3.org/Graphics/SVG/1.1/DTD/svg11.dtd">
<!-- Creator: CorelDRAW 2021 (64-Bit) -->
<svg xmlns="http://www.w3.org/2000/svg" xml:space="preserve" width="2282px" height="1080px" version="1.1" style="shape-rendering:geometricPrecision; text-rendering:geometricPrecision; image-rendering:optimizeQuality; fill-rule:evenodd; clip-rule:evenodd"
viewBox="0 0 2280.63 1079.35"
 xmlns:xlink="http://www.w3.org/1999/xlink"
 xmlns:xodm="http://www.corel.com/coreldraw/odm/2003">
 <defs>
  <style type="text/css">
   <![CDATA[
    .fil3 {fill:none}
    .fil1 {fill:#4D4D4D;fill-rule:nonzero}
    .fil2 {fill:#B3B3B3;fill-rule:nonzero}
    .fil0 {fill:#CCCCCC;fill-rule:nonzero}
   ]]>
  </style>
 </defs>
 <g id="Capa_x0020_1">
  <metadata id="CorelCorpID_0Corel-Layer"/>
  <path class="fil0" d="M1210.82 310.27l0 -201.62 -141.01 0 0 201.62 32.63 0 0 -48.04c0,-20.91 16.96,-37.87 37.87,-37.87 20.92,0 37.88,16.96 37.88,37.87l0 0 0 48.04 32.63 0zm-70.5 -172.25c16.17,0 29.33,13.15 29.33,29.33 0,16.17 -13.16,29.33 -29.33,29.33 -16.18,0 -29.34,-13.16 -29.34,-29.33 0,-16.18 13.16,-29.33 29.34,-29.33zm70.5 -45.38c2.51,0 4.71,-1.65 5.42,-4.06 0.7,-2.4 -0.27,-4.98 -2.38,-6.33l-70.5 -45.13c-1.85,-1.19 -4.23,-1.19 -6.09,0l-70.5 45.13c-2.11,1.35 -3.08,3.93 -2.38,6.33 0.71,2.41 2.91,4.06 5.42,4.06l141.01 0z"/>
  <path class="fil1" d="M1140.32 205.7c21.15,0 38.35,-17.2 38.35,-38.35 0,-21.15 -17.21,-38.36 -38.35,-38.36 -21.15,0 -38.36,17.21 -38.36,38.36 0,21.15 17.21,38.35 38.36,38.35zm0 -67.68c16.17,0 29.33,13.15 29.33,29.33 0,16.17 -13.16,29.33 -29.33,29.33 -16.18,0 -29.34,-13.16 -29.34,-29.33 0,-16.18 13.16,-29.33 29.34,-29.33z"/>
  <polygon class="fil1" points="1156.48,176.58 1156.48,167.56 1142.94,167.56 1142.94,149.51 1133.92,149.51 1133.92,167.56 1133.92,176.58 1142.94,176.58 "/>
  <g id="_1922122374992">
  </g>
  <g id="_1922122380560">
  </g>
  <g id="_1922122382288">
  </g>
  <g id="_1922122367552">
  </g>
  <g id="_1922122366880">
  </g>
  <g id="_1922122921632">
  </g>
  <g id="_1922122922544">
  </g>
  <g id="_1922122922064">
  </g>
  <g id="_1922122922832">
  </g>
  <g id="_1922122935264">
  </g>
  <g id="_1922122933584">
  </g>
  <g id="_1922122935888">
  </g>
  <g id="_1922122935648">
  </g>
  <g id="_1922122934208">
  </g>
  <g id="_1922122935360">
  </g>
  <g id="_1922122941216">
  </g>
  <g id="_1922122942464">
  </g>
  <g id="_1922122940400">
  </g>
  <g id="_1922122945248">
  </g>
  <g id="_1922122942848">
  </g>
  <g id="_1922122944768">
  </g>
  <g id="_1922122944192">
  </g>
  <g id="_1922122943040">
  </g>
  <g id="_1922122944912">
  </g>
  <g id="_1922122945536">
  </g>
  <g id="_1922122943856">
  </g>
  <g id="_1922122947456">
  </g>
  <g id="_1922122947552">
  </g>
  <g id="_1922122946496">
  </g>
  <g id="_1922122946016">
  </g>
  <g id="_1922122946256">
  </g>
  <g id="_1922122917456">
  </g>
  <g id="_1922122917264">
  </g>
  <g id="_1922122915824">
  </g>
  <g id="_1922122917744">
  </g>
  <g id="_1922122915440">
  </g>
  <g id="_1922122915488">
  </g>
  <g id="_1922122916688">
  </g>
  <g id="_1922122919568">
  </g>
  <g id="_1922122499808">
  </g>
  <g id="_1922122499856">
  </g>
  <g id="_1922122500048">
  </g>
  <g id="_1922122501968">
  </g>
  <g id="_1922122506624">
  </g>
  <g id="_1922122480224">
  </g>
  <path class="fil2" d="M1459.38 659.67l36.75 0 0 -18.37 -36.75 0 0 18.37zm-21.43 -24.5l36.74 0 0 -24.49 -36.74 0 0 24.49zm-21.44 122.49l36.75 0 0 -18.37 -36.75 0 0 18.37zm-27.56 -97.99l21.43 0 0 -18.37 -21.43 0 0 18.37zm91.87 -24.5l36.74 0 0 -24.49 -36.74 0 0 24.49zm0 49l36.74 0 0 -18.37 -36.74 0 0 18.37zm21.43 -24.5l36.75 0 0 -18.37 -36.75 0 0 18.37zm-64.3 73.5l36.74 0 0 -18.38 -36.74 0 0 18.38zm107.18 24.49l21.43 0 0 -18.37 -21.43 0 0 18.37zm-156.18 27.57c0,1.69 1.37,3.06 3.06,3.06l39.81 0 0 -24.5 -42.87 0 0 21.44zm134.74 3.06l39.81 0c1.69,0 3.06,-1.37 3.06,-3.06l0 -21.44 -42.87 0 0 24.5zm-85.74 0l36.74 0 0 -24.5 -36.74 0 0 24.5zm-6.13 -177.61l-39.81 0c-1.69,0 -3.06,1.37 -3.06,3.06l0 21.44 42.87 0 0 -24.5zm49 177.61l36.74 0 0 -24.5 -36.74 0 0 24.5zm64.31 -79.62l21.43 0 0 -18.37 -21.43 0 0 18.37zm21.43 -94.93c0,-1.69 -1.37,-3.06 -3.06,-3.06l-39.81 0 0 24.5 42.87 0 0 -21.44zm-150.05 45.93l36.75 0 0 -18.37 -36.75 0 0 18.37zm64.31 73.5l36.74 0 0 -18.38 -36.74 0 0 18.38zm-21.44 24.49l36.75 0 0 -18.37 -36.75 0 0 18.37zm64.31 -24.49l42.87 0 0 -18.38 -42.87 0 0 18.38zm-21.44 24.49l36.75 0 0 -18.37 -36.75 0 0 18.37zm-113.3 -24.49l42.87 0 0 -18.38 -42.87 0 0 18.38zm0 24.49l21.43 0 0 -18.37 -21.43 0 0 18.37zm156.18 -97.99l21.43 0 0 -18.37 -21.43 0 0 18.37zm-156.18 49l21.43 0 0 -18.37 -21.43 0 0 18.37zm0 -24.5l42.87 0 0 -18.37 -42.87 0 0 18.37zm70.43 24.5l36.75 0 0 -18.37 -36.75 0 0 18.37zm-42.87 0l36.75 0 0 -18.37 -36.75 0 0 18.37zm85.74 0l36.75 0 0 -18.37 -36.75 0 0 18.37zm-64.3 -24.5l36.74 0 0 -18.37 -36.74 0 0 18.37zm85.74 0l42.87 0 0 -18.37 -42.87 0 0 18.37z"/>
  <path class="fil2" d="M784.5 659.67l36.75 0 0 -18.37 -36.75 0 0 18.37zm-21.43 -24.5l36.74 0 0 -24.49 -36.74 0 0 24.49zm-21.44 122.49l36.75 0 0 -18.37 -36.75 0 0 18.37zm-27.56 -97.99l21.44 0 0 -18.37 -21.44 0 0 18.37zm91.87 -24.5l36.75 0 0 -24.49 -36.75 0 0 24.49zm0 49l36.75 0 0 -18.37 -36.75 0 0 18.37zm21.43 -24.5l36.75 0 0 -18.37 -36.75 0 0 18.37zm-64.3 73.5l36.74 0 0 -18.38 -36.74 0 0 18.38zm107.18 24.49l21.43 0 0 -18.37 -21.43 0 0 18.37zm-156.18 27.57c0,1.69 1.37,3.06 3.06,3.06l39.81 0 0 -24.5 -42.87 0 0 21.44zm134.74 3.06l39.81 0c1.69,0 3.06,-1.37 3.06,-3.06l0 -21.44 -42.87 0 0 24.5zm-85.74 0l36.74 0 0 -24.5 -36.74 0 0 24.5zm-6.13 -177.61l-39.81 0c-1.69,0 -3.06,1.37 -3.06,3.06l0 21.44 42.87 0 0 -24.5zm49 177.61l36.75 0 0 -24.5 -36.75 0 0 24.5zm64.31 -79.62l21.43 0 0 -18.37 -21.43 0 0 18.37zm21.43 -94.93c0,-1.69 -1.37,-3.06 -3.06,-3.06l-39.81 0 0 24.5 42.87 0 0 -21.44zm-150.05 45.93l36.75 0 0 -18.37 -36.75 0 0 18.37zm64.31 73.5l36.75 0 0 -18.38 -36.75 0 0 18.38zm-21.44 24.49l36.75 0 0 -18.37 -36.75 0 0 18.37zm64.31 -24.49l42.87 0 0 -18.38 -42.87 0 0 18.38zm-21.44 24.49l36.75 0 0 -18.37 -36.75 0 0 18.37zm-113.3 -24.49l42.87 0 0 -18.38 -42.87 0 0 18.38zm0 24.49l21.44 0 0 -18.37 -21.44 0 0 18.37zm156.18 -97.99l21.43 0 0 -18.37 -21.43 0 0 18.37zm-156.18 49l21.44 0 0 -18.37 -21.44 0 0 18.37zm0 -24.5l42.87 0 0 -18.37 -42.87 0 0 18.37zm70.43 24.5l36.75 0 0 -18.37 -36.75 0 0 18.37zm-42.87 0l36.75 0 0 -18.37 -36.75 0 0 18.37zm85.74 0l36.75 0 0 -18.37 -36.75 0 0 18.37zm-64.3 -24.5l36.74 0 0 -18.37 -36.74 0 0 18.37zm85.74 0l42.87 0 0 -18.37 -42.87 0 0 18.37z"/>
  <path class="fil2" d="M1615.4 660.06l22.68 0.52 0.33 -21.8 -22.68 0.74 -0.33 20.54zm161.83 -35.69l48.26 -2.48 0.47 -42.9 -48.26 6.07 -0.47 39.31zm-26.99 189.72l43.7 14.14 0.36 -30.86 -43.7 -11.65 -0.36 28.37zm84.16 -192.66l59.84 -3.09 0.45 -47.98 -59.82 7.51 -0.47 43.56zm-0.93 87.37l59.88 5.85 0.34 -36.17 -59.87 -2.49 -0.35 32.81zm-58.15 73.57l48.28 11.97 0.36 -32.45 -48.28 -9.24 -0.36 29.72zm-1.08 89.4l48.3 20.2 0.47 -43.45 -48.29 -16.54 -0.48 39.79zm57.23 23.93l59.97 25.09 0.45 -48.69 -59.95 -20.52 -0.47 44.12zm-79.32 -232.51l43.7 1.01 0.35 -30.62 -43.69 1.44 -0.36 28.17zm80.38 133.36l59.92 14.86 0.34 -36.34 -59.91 -11.47 -0.35 32.95zm-30.55 34.28l53.64 17.35 0.35 -34.35 -53.64 -14.31 -0.35 31.31zm0.95 -83.39l53.62 9.25 0.35 -34.2 -53.61 -6.24 -0.36 31.19zm-51.73 -8.93l43.7 7.54 0.35 -30.73 -43.69 -5.09 -0.36 28.28zm25.08 -35.29l48.27 4.71 0.35 -32.31 -48.27 -2 -0.35 29.6zm27.6 -38.84l53.6 1.23 0.34 -34.06 -53.59 1.77 -0.35 31.06zm-113.01 -35.56l33.3 -1.71 0.47 -35.38 -33.3 4.18 -0.47 32.91zm-19.67 159.71l30.61 9.9 0.35 -25.63 -30.61 -8.17 -0.35 23.9zm59.01 -161.74l39.75 -2.04 0.47 -38.78 -39.74 5 -0.48 35.82zm-0.94 71.84l39.74 3.88 0.35 -29.2 -39.74 -1.65 -0.35 26.97zm-40.27 62.34l33.27 8.25 0.36 -26.72 -33.28 -6.37 -0.35 24.84zm-1.06 74.7l33.26 13.91 0.48 -35.76 -33.27 -11.39 -0.47 33.24zm39.3 16.44l39.73 16.62 0.48 -39.23 -39.73 -13.61 -0.48 36.22zm-54.19 -190.73l30.64 0.7 0.35 -25.46 -30.64 1 -0.35 23.76zm55.26 109.33l39.74 9.86 0.36 -29.31 -39.74 -7.61 -0.36 27.06zm-20.97 29.51l36.29 11.74 0.36 -28.01 -36.29 -9.68 -0.36 25.95zm0.95 -69.12l36.29 6.27 0.36 -27.9 -36.29 -4.23 -0.36 25.86zm-36.16 -6.24l30.62 5.28 0.35 -25.55 -30.63 -3.56 -0.34 23.83zm17.81 -30.07l33.28 3.25 0.36 -26.63 -33.29 -1.39 -0.35 24.77zm19.3 -32.58l36.3 0.83 0.35 -27.8 -36.3 1.19 -0.35 25.78zm196.19 -44.44l76.15 -3.92 0.39 -54.46 -76.1 9.56 -0.44 48.82zm-39.84 233.64l67.43 21.81 0.32 -38.75 -67.4 -17.98 -0.35 34.92zm130.43 -238.31l100.19 -5.16 0.28 -62.95 -100.09 12.58 -0.38 55.53zm-0.76 111.5l100.39 9.81 0.21 -47.52 -100.31 -4.17 -0.29 41.88zm55.79 -54.55l116.87 2.68 0.14 -51.39 -116.76 3.84 -0.25 44.87zm-147.39 144.14l76.35 18.92 0.29 -41.29 -76.31 -14.61 -0.33 36.98zm286.52 142.22l90.45 29.25 0 -58.54 -90.34 -24.1 -0.11 53.39zm-76.21 57.47l152.65 63.86c7.69,3.21 14,1.47 14,-3.95l0 -68.57 -166.39 -56.98 -0.26 65.64zm-211.31 -88.4l76.45 31.99 0.4 -55.36 -76.41 -26.17 -0.44 49.54zm90.97 38.06l100.82 42.18 0.29 -64.16 -100.73 -34.49 -0.38 56.47zm196.85 -149.19l90.15 15.56 0 -58.1 -90.03 -10.48 -0.12 53.02zm90.14 -282.93c0,-5.29 -6.23,-8.78 -13.81,-7.83l-150.98 18.98 -0.25 64.38 165.04 -8.5 0 -67.03zm-413.19 134.42l67.29 1.54 0.32 -38.37 -67.27 2.21 -0.34 34.62zm127.07 170.87l100.59 24.94 0.21 -47.81 -100.52 -19.24 -0.28 42.11zm-48.78 40.62l87.29 28.23 0.26 -44.43 -87.24 -23.28 -0.31 39.48zm168.83 -10.86l166.08 41.18 0 -58.33 -165.88 -31.76 -0.2 48.91zm-64.82 44.5l117.44 37.99 0.14 -52.07 -117.34 -31.3 -0.24 45.38zm141.06 -237.71l89.84 2.06 0 -57.69 -89.73 2.96 -0.11 52.67zm-244.24 98.98l87.15 15.04 0.26 -44.18 -87.09 -10.14 -0.32 39.28zm-80.04 -13.82l67.36 11.63 0.32 -38.56 -67.33 -7.84 -0.35 34.77zm183.88 31.74l117.16 20.23 0.14 -51.73 -117.05 -13.62 -0.25 45.12zm-145.85 -74.41l76.26 7.44 0.29 -41.07 -76.21 -3.17 -0.34 36.8zm210.53 20.55l165.56 16.17 0 -57.89 -165.37 -6.88 -0.19 48.6zm-167.68 -68.63l87.01 2 0.26 -43.94 -86.96 2.86 -0.31 39.08zm-343.61 -34.37l21.19 -1.09 0.44 -28.01 -21.2 2.66 -0.43 26.44zm-13.41 129.08l19.76 6.39 0.33 -20.44 -19.77 -5.27 -0.32 19.32zm-11.79 -103.17l10.4 0.24 0.31 -19.06 -10.4 0.35 -0.31 18.47zm78.88 -28.67l28.31 -1.46 0.46 -32.53 -28.31 3.56 -0.46 30.43zm-28.72 1.48l24.36 -1.26 0.45 -30.1 -24.37 3.06 -0.44 28.3zm27.81 59.51l28.29 2.76 0.35 -24.48 -28.3 -1.18 -0.34 22.9zm-28.69 -2.8l24.33 2.37 0.34 -22.65 -24.34 -1.01 -0.33 21.29zm14.27 -28.06l26.21 0.6 0.35 -23.49 -26.22 0.86 -0.34 22.03zm-40.07 78.74l21.14 5.24 0.33 -21.13 -21.14 -4.05 -0.33 19.94zm-25.62 46.49c-0.03,1.72 0.59,3.37 1.39,3.71l19.97 8.35 0.43 -26.4 -21.42 -7.34 -0.37 21.68zm24.65 13.43l21.11 8.83 0.44 -28.25 -21.12 -7.23 -0.43 26.65zm-0.18 -192.05l-20.06 2.52c-0.8,0.1 -1.47,1.55 -1.5,3.25l-0.36 21.53 21.49 -1.11 0.43 -26.19zm53.69 214.44l28.25 11.82 0.47 -32.85 -28.26 -9.68 -0.46 30.71zm-28.64 -11.98l24.29 10.16 0.46 -30.38 -24.3 -8.32 -0.45 28.54zm-33.89 -150.22l19.81 0.46 0.32 -20.34 -19.81 0.65 -0.32 19.23zm63.57 93.17l28.26 7.01 0.35 -24.55 -28.27 -5.42 -0.34 22.96zm-28.67 -7.1l24.31 6.02 0.34 -22.71 -24.32 -4.66 -0.33 21.35zm-13.32 24.32l22.63 7.32 0.34 -21.92 -22.64 -6.04 -0.33 20.64zm26.68 8.63l26.16 8.46 0.35 -23.63 -26.17 -6.98 -0.34 22.15zm-63 -45.26l21.44 5.32 0.32 -19.76 -21.45 -4.1 -0.31 18.54zm-0.42 24.75l10.38 3.35 0.32 -19.15 -10.39 -2.77 -0.31 18.57zm0.83 -49.47l10.4 1.79 0.31 -19.1 -10.39 -1.21 -0.32 18.52zm0.42 -24.69l21.47 2.1 0.32 -19.7 -21.48 -0.9 -0.31 18.5zm36.37 31.04l22.65 3.91 0.34 -21.86 -22.66 -2.64 -0.33 20.59zm-23.31 -4.02l19.79 3.41 0.32 -20.39 -19.79 -2.3 -0.32 19.28zm50.01 8.63l26.19 4.52 0.35 -23.56 -26.2 -3.05 -0.34 22.09zm-38.31 -33.23l21.16 2.06 0.33 -21.07 -21.16 -0.88 -0.33 19.89z"/>
  <path class="fil2" d="M665.23 660.06l-22.68 0.52 -0.33 -21.8 22.68 0.74 0.33 20.54zm-161.83 -35.69l-48.26 -2.48 -0.47 -42.9 48.26 6.07 0.47 39.31zm26.99 189.72l-43.7 14.14 -0.36 -30.86 43.7 -11.65 0.36 28.37zm-84.16 -192.66l-59.84 -3.09 -0.45 -47.98 59.82 7.51 0.47 43.56zm0.93 87.37l-59.88 5.85 -0.34 -36.17 59.87 -2.49 0.35 32.81zm58.15 73.57l-48.28 11.97 -0.36 -32.45 48.28 -9.24 0.36 29.72zm1.08 89.4l-48.3 20.2 -0.47 -43.45 48.29 -16.54 0.48 39.79zm-57.23 23.93l-59.97 25.09 -0.45 -48.69 59.95 -20.52 0.47 44.12zm79.32 -232.51l-43.7 1.01 -0.35 -30.62 43.69 1.44 0.36 28.17zm-80.38 133.36l-59.92 14.86 -0.34 -36.34 59.91 -11.47 0.35 32.95zm30.56 34.28l-53.65 17.35 -0.35 -34.35 53.64 -14.31 0.36 31.31zm-0.96 -83.39l-53.62 9.25 -0.35 -34.2 53.62 -6.24 0.35 31.19zm51.73 -8.93l-43.7 7.54 -0.35 -30.73 43.69 -5.09 0.36 28.28zm-25.08 -35.29l-48.27 4.71 -0.35 -32.31 48.27 -2 0.35 29.6zm-27.6 -38.84l-53.59 1.23 -0.35 -34.06 53.59 1.77 0.35 31.06zm113.01 -35.56l-33.3 -1.71 -0.47 -35.38 33.3 4.18 0.47 32.91zm19.67 159.71l-30.61 9.9 -0.35 -25.63 30.61 -8.17 0.35 23.9zm-59.01 -161.74l-39.75 -2.04 -0.47 -38.78 39.74 5 0.48 35.82zm0.95 71.84l-39.75 3.88 -0.35 -29.2 39.74 -1.65 0.36 26.97zm40.26 62.34l-33.27 8.25 -0.36 -26.72 33.28 -6.37 0.35 24.84zm1.06 74.7l-33.26 13.91 -0.48 -35.76 33.27 -11.39 0.47 33.24zm-39.3 16.44l-39.73 16.62 -0.48 -39.23 39.73 -13.61 0.48 36.22zm54.19 -190.73l-30.64 0.7 -0.35 -25.46 30.64 1 0.35 23.76zm-55.26 109.33l-39.74 9.86 -0.36 -29.31 39.74 -7.61 0.36 27.06zm20.97 29.51l-36.29 11.74 -0.36 -28.01 36.29 -9.68 0.36 25.95zm-0.95 -69.12l-36.29 6.27 -0.36 -27.9 36.3 -4.23 0.35 25.86zm36.16 -6.24l-30.62 5.28 -0.35 -25.55 30.63 -3.56 0.34 23.83zm-17.81 -30.07l-33.28 3.25 -0.36 -26.63 33.29 -1.39 0.35 24.77zm-19.29 -32.58l-36.31 0.83 -0.35 -27.8 36.3 1.19 0.36 25.78zm-196.2 -44.44l-76.15 -3.92 -0.39 -54.46 76.1 9.56 0.44 48.82zm39.84 233.64l-67.43 21.81 -0.32 -38.75 67.4 -17.98 0.35 34.92zm-130.43 -238.31l-100.19 -5.16 -0.28 -62.95 100.09 12.58 0.38 55.53zm0.76 111.5l-100.39 9.81 -0.21 -47.52 100.31 -4.17 0.29 41.88zm-55.79 -54.55l-116.87 2.68 -0.14 -51.39 116.76 3.84 0.25 44.87zm147.39 144.14l-76.35 18.92 -0.29 -41.29 76.31 -14.61 0.33 36.98zm-286.52 142.22l-90.45 29.25 0 -58.54 90.34 -24.1 0.11 53.39zm76.21 57.47l-152.65 63.86c-7.69,3.21 -14,1.47 -14,-3.95l0 -68.57 166.39 -56.98 0.26 65.64zm211.31 -88.4l-76.45 31.99 -0.4 -55.36 76.41 -26.17 0.44 49.54zm-90.97 38.06l-100.82 42.18 -0.29 -64.16 100.73 -34.49 0.38 56.47zm-196.85 -149.19l-90.15 15.56 0 -58.1 90.03 -10.48 0.12 53.02zm-90.14 -282.93c0,-5.29 6.23,-8.78 13.81,-7.83l150.98 18.98 0.25 64.38 -165.04 -8.5 0 -67.03zm413.19 134.42l-67.29 1.54 -0.32 -38.37 67.27 2.21 0.34 34.62zm-127.07 170.87l-100.59 24.94 -0.21 -47.81 100.52 -19.24 0.28 42.11zm48.79 40.62l-87.29 28.23 -0.27 -44.43 87.24 -23.28 0.32 39.48zm-168.84 -10.86l-166.08 41.18 0 -58.33 165.88 -31.76 0.2 48.91zm64.82 44.5l-117.44 37.99 -0.14 -52.07 117.34 -31.3 0.24 45.38zm-141.06 -237.71l-89.84 2.06 0 -57.69 89.73 2.96 0.11 52.67zm244.24 98.98l-87.15 15.04 -0.26 -44.18 87.09 -10.14 0.32 39.28zm80.04 -13.82l-67.36 11.63 -0.32 -38.56 67.33 -7.84 0.35 34.77zm-183.88 31.74l-117.15 20.23 -0.15 -51.73 117.05 -13.62 0.25 45.12zm145.85 -74.41l-76.25 7.44 -0.3 -41.07 76.21 -3.17 0.34 36.8zm-210.53 20.55l-165.56 16.17 0 -57.89 165.37 -6.88 0.19 48.6zm167.68 -68.63l-87.01 2 -0.26 -43.94 86.96 2.86 0.31 39.08zm343.61 -34.37l-21.19 -1.09 -0.43 -28.01 21.19 2.66 0.43 26.44zm13.41 129.08l-19.76 6.39 -0.33 -20.44 19.77 -5.27 0.32 19.32zm11.8 -103.17l-10.41 0.24 -0.31 -19.06 10.4 0.35 0.32 18.47zm-78.89 -28.67l-28.31 -1.46 -0.46 -32.53 28.31 3.56 0.46 30.43zm28.72 1.48l-24.36 -1.26 -0.45 -30.1 24.37 3.06 0.44 28.3zm-27.81 59.51l-28.29 2.76 -0.35 -24.48 28.3 -1.18 0.34 22.9zm28.7 -2.8l-24.34 2.37 -0.34 -22.65 24.34 -1.01 0.34 21.29zm-14.28 -28.06l-26.21 0.6 -0.34 -23.49 26.21 0.86 0.34 22.03zm40.07 78.74l-21.14 5.24 -0.33 -21.13 21.14 -4.05 0.33 19.94zm25.62 46.49c0.03,1.72 -0.59,3.37 -1.39,3.71l-19.97 8.35 -0.43 -26.4 21.42 -7.34 0.37 21.68zm-24.65 13.43l-21.11 8.83 -0.44 -28.25 21.12 -7.23 0.43 26.65zm0.18 -192.05l20.06 2.52c0.8,0.1 1.47,1.55 1.5,3.25l0.36 21.53 -21.49 -1.11 -0.43 -26.19zm-53.69 214.44l-28.25 11.82 -0.47 -32.85 28.26 -9.68 0.46 30.71zm28.64 -11.98l-24.29 10.16 -0.46 -30.38 24.3 -8.32 0.45 28.54zm33.89 -150.22l-19.81 0.46 -0.32 -20.34 19.81 0.65 0.32 19.23zm-63.57 93.17l-28.26 7.01 -0.35 -24.55 28.27 -5.42 0.34 22.96zm28.68 -7.1l-24.32 6.02 -0.34 -22.71 24.32 -4.66 0.34 21.35zm13.31 24.32l-22.63 7.32 -0.34 -21.92 22.64 -6.04 0.33 20.64zm-26.67 8.63l-26.17 8.46 -0.35 -23.63 26.18 -6.98 0.34 22.15zm62.99 -45.26l-21.44 5.32 -0.32 -19.76 21.45 -4.1 0.31 18.54zm0.42 24.75l-10.38 3.35 -0.31 -19.15 10.38 -2.77 0.31 18.57zm-0.83 -49.47l-10.39 1.79 -0.32 -19.1 10.39 -1.21 0.32 18.52zm-0.42 -24.69l-21.47 2.1 -0.32 -19.7 21.48 -0.9 0.31 18.5zm-36.37 31.04l-22.65 3.91 -0.34 -21.86 22.66 -2.64 0.33 20.59zm23.31 -4.02l-19.79 3.41 -0.32 -20.39 19.79 -2.3 0.32 19.28zm-50.01 8.63l-26.19 4.52 -0.35 -23.56 26.2 -3.05 0.34 22.09zm38.31 -33.23l-21.16 2.06 -0.33 -21.07 21.16 -0.88 0.33 19.89z"/>
  <g id="_1922122484976">
  </g>
  <g id="_1922122486752">
  </g>
  <g id="_1922122486416">
  </g>
  <g id="_1922122489296">
  </g>
  <g id="_1922122491360">
  </g>
  <g id="_1922122494480">
  </g>
  <g id="_1922122491648">
  </g>
  <g id="_1922122493376">
  </g>
  <g id="_1922122497408">
  </g>
  <g id="_1922122495440">
  </g>
  <g id="_1922122496976">
  </g>
  <g id="_1922122842816">
  </g>
  <g id="_1922122845888">
  </g>
  <g id="_1922122844544">
  </g>
  <g id="_1922122844832">
  </g>
  <path class="fil1" d="M1133.1 278.41c0,0.02 0,0.03 0,0.05 0,3.98 3.23,7.22 7.22,7.22 3.98,0 7.21,-3.24 7.21,-7.22 0,-0.02 0,-0.03 0,-0.05l-14.43 0zm30.26 -9.02l-6.5 -9.54c0,-2.92 0,-10.06 0,-11.9 0,-8.03 -5.71,-14.72 -13.3,-16.23l0 -3.66c0,-1.8 -1.45,-3.25 -3.24,-3.25 -1.8,0 -3.25,1.45 -3.25,3.25l0 3.66c-7.58,1.51 -13.3,8.2 -13.3,16.23 0,3.14 0,10.08 0,11.9l-6.49 9.54c-0.69,1.01 -0.76,2.31 -0.19,3.38 0.57,1.08 1.68,1.75 2.9,1.75l40.65 0c1.22,0 2.34,-0.67 2.9,-1.75 0.57,-1.07 0.5,-2.37 -0.18,-3.38z"/>
  <path class="fil2" d="M1140.31 300.36c-63.8,0 -127.39,16.89 -156.79,46.3l-2.74 2.7 -27.28 0 0 63.29 373.61 0 0 -63.29 -27.25 0 -2.76 -2.7c-29.4,-29.41 -92.99,-46.3 -156.79,-46.3zm-114.33 63.29l228.66 0 0 18.37 -228.66 0 0 -18.37zm-88.81 67.37l0 128.62 30.62 0 0 -98 83.71 0 0 98 46.96 0 0 -72.48c0,-22.46 20.92,-33.68 41.85,-33.68 20.93,0 41.85,11.22 41.85,33.68l0 72.48 46.96 0 0 -98 83.7 0 0 98 30.62 0 0 -128.62 -406.27 0zm193.95 41.95c-7.96,1.94 -14.29,6.74 -14.29,14.19l0 23.48 14.29 0 0 -37.67zm18.38 0l0 37.67 14.29 0 0 -23.48c0,-7.45 -6.33,-12.25 -14.29,-14.19l0 0zm-163.33 7.05l0 30.62 14.29 0 0 -30.62 -14.29 0zm32.67 0l0 30.62 14.29 0 0 -30.62 -14.29 0zm228.65 0l0 30.62 14.29 0 0 -30.62 -14.29 0zm32.66 0l0 30.62 14.3 0 0 -30.62 -14.3 0zm-293.98 48.99l0 30.63 14.29 0 0 -30.63 -14.29 0zm32.67 0l0 30.63 14.29 0 0 -30.63 -14.29 0zm97.99 0l0 30.63 14.29 0 0 -30.63 -14.29 0zm32.67 0l0 30.63 14.29 0 0 -30.63 -14.29 0zm97.99 0l0 30.63 14.29 0 0 -30.63 -14.29 0zm32.66 0l0 30.63 14.3 0 0 -30.63 -14.3 0zm-350.01 49l-28.58 14.29 477.51 0 -28.58 -14.29 -420.35 0zm-27.68 32.66l0 112.29 32.54 0 0 -112.29 -32.54 0zm51.04 0l0 112.29 46.96 0 0 -68.7 -43.65 -43.59 -3.31 0zm29.3 0l17.66 17.66 0 -17.66 -17.66 0zm36.04 0l0 17.66 17.55 -17.66 -17.55 0zm43.69 0l-43.69 43.59 0 68.7 63.29 0 0 -97.99 116.36 0 0 97.99 63.29 0 0 -68.7 -43.69 -43.59 -155.56 0zm181.69 0l17.56 17.66 0 -17.66 -17.56 0zm35.93 0l0 17.66 17.56 -17.66 -17.56 0zm43.69 0l-43.69 43.59 0 68.7 46.96 0 0 -112.29 -3.27 0zm21.77 0l0 112.29 32.54 0 0 -112.29 -32.54 0zm-245.11 32.67l0 28.48c3.37,-1.33 7.14,-3.06 11.23,-5.11 8.16,-3.98 17.35,-9.08 28.48,-9.08 11.02,-0.1 20,5 28.27,9.08 4.19,2.05 8.07,3.88 11.64,5.21l0 -28.58 -79.62 0zm30.62 34.81c-3.37,1.32 -7.14,3.06 -11.23,5.1 -5.81,2.96 -12.14,6.33 -19.39,7.96l0 31.75 30.62 0 0 -44.81zm18.38 0.1l0 44.71 30.62 0 0 -31.75c-7.35,-1.73 -13.78,-5.1 -19.8,-8.06 -3.88,-1.94 -7.56,-3.57 -10.82,-4.9l0 0zm-247.04 61.04l0 49 134.14 0 23.48 -49 -157.62 0zm178.24 0l-7.15 16.33 133.52 0 -7.15 -16.33 -117.79 0 -1.43 0zm139.84 0l23.48 49 134.13 0 0 -49 -157.61 0zm-156.18 29.99l-7.14 19.01 166.18 0 -7.15 -19.01 -151.89 0z"/>
  <g id="_1922122851744">
   <g>
    <g>
     <path class="fil1" d="M1243.11 693.36l0 -5.88 0 0c-2.63,-0.03 -4.88,-0.4 -6.67,-1.1 -1.57,-0.61 -2.82,-1.49 -3.73,-2.59 -0.91,1.1 -2.17,1.98 -3.74,2.59 -1.69,0.66 -3.79,1.03 -6.25,1.1l0 5.5c-1.68,4.08 -7.3,19.73 -3.32,38.83 0.53,2.5 2.98,4.1 5.47,3.58 2.5,-0.52 4.1,-2.97 3.58,-5.47 -3.88,-18.6 3.24,-34.42 3.3,-34.62l2.18 0c0.17,0.55 7.24,15.71 3.3,34.62 -0.52,2.5 1.08,4.95 3.58,5.47 2.49,0.52 4.94,-1.08 5.46,-3.58 3.88,-18.55 -1.31,-33.85 -3.16,-38.45z"/>
    </g>
   </g>
   <g>
    <g>
     <path class="fil1" d="M1210.26 664.21l-1.03 -13.54c1.2,-0.26 1.99,-1.19 2.16,-2.26 0.04,-0.22 0.03,-0.55 0.03,-0.53 0,-0.01 0,-0.02 0,-0.04l1.4 0c0.43,0 0.78,-0.34 0.78,-0.77l0 -1.64c0,-0.43 -0.35,-0.77 -0.78,-0.77l-1.56 0c-0.14,-3.02 -0.28,-5.96 -0.34,-7.29 -0.02,-0.41 -0.36,-0.73 -0.77,-0.73l-1.47 0c-0.41,0 -0.75,0.32 -0.77,0.73 -0.05,1.11 -0.16,3.35 -0.28,5.81l-1.05 -0.57c-0.66,-0.36 -1.49,-0.12 -1.85,0.54 -0.36,0.67 -0.12,1.5 0.55,1.86l0.17 0.09 -0.05 0.08c-2.33,-0.09 -4.16,1.87 -3.99,4.14l1.28 16.96c0.35,4.66 5.28,7.53 9.51,5.53l7.16 -3.38c2.15,-1.79 2.74,-6.96 2.73,-9.79 -0.29,0.11 0.73,-0.36 -11.83,5.57z"/>
    </g>
   </g>
   <g>
    <g>
     <path class="fil1" d="M1258.32 667.93c-11.32,-7.24 -14.99,-9.44 -14.99,-9.44 -0.05,3.38 0.79,9.15 3.3,10.31l5.53 4.32 -1.44 15.1c-0.22,2.25 1.55,4.22 3.83,4.22 1.96,0 3.64,-1.5 3.83,-3.49l1.67 -17.42c0.14,-1.43 -0.53,-2.82 -1.73,-3.6z"/>
    </g>
   </g>
   <g>
    <g>
     <path class="fil1" d="M1229.02 658.24l-3.52 0c0,0 0.4,11.04 -5.29,13.66 0,0 0.04,6.35 -1.78,10.06 -0.44,0.9 0.18,1.96 1.17,2.03 4.49,0.32 10.96,-0.09 11.36,-4.58 0.45,-5.16 -1.09,-16.18 -1.94,-21.17z"/>
    </g>
   </g>
   <g>
    <g>
     <path class="fil1" d="M1246.98 681.96c-1.81,-3.71 -1.78,-10.06 -1.78,-10.06 -5.69,-2.62 -5.28,-13.66 -5.28,-13.66l-3.53 0c0,0 -2.5,14.68 -1.93,21.17 0.39,4.49 6.87,4.9 11.35,4.58 1,-0.07 1.61,-1.13 1.17,-2.03zm-4.93 -9.22c-0.12,0 -0.23,-0.05 -0.32,-0.13l-1.06 1.04 0.25 1.45c0.03,-0.01 0.05,-0.01 0.08,-0.01 0.25,0 0.46,0.2 0.46,0.45 0,0.26 -0.21,0.46 -0.46,0.46 -0.25,0 -0.46,-0.2 -0.46,-0.46 0,-0.07 0.03,-0.14 0.06,-0.21l-1.31 -0.68 -1.3 0.68c0.03,0.07 0.05,0.14 0.05,0.21 0,0.26 -0.2,0.46 -0.45,0.46 -0.25,0 -0.46,-0.2 -0.46,-0.46 0,-0.25 0.21,-0.45 0.46,-0.45 0.02,0 0.05,0 0.07,0.01l0.25 -1.45 -1.06 -1.04c-0.08,0.08 -0.19,0.13 -0.32,0.13 -0.25,0 -0.45,-0.2 -0.45,-0.45 0,-0.25 0.2,-0.46 0.45,-0.46 0.24,0 0.43,0.18 0.45,0.41l1.46 -0.21 0.65 -1.33c-0.15,-0.07 -0.25,-0.22 -0.25,-0.4 0,-0.25 0.2,-0.46 0.45,-0.46 0.25,0 0.46,0.21 0.46,0.46 0,0.18 -0.11,0.33 -0.26,0.4l0.66 1.33 1.45 0.21c0.03,-0.23 0.22,-0.41 0.45,-0.41 0.25,0 0.46,0.21 0.46,0.46 0,0.25 -0.21,0.45 -0.46,0.45z"/>
    </g>
   </g>
   <g>
    <g>
     <path class="fil1" d="M1246.14 643.14c-0.46,-1.5 -2.05,-2.35 -3.56,-1.88 -0.62,0.19 -1.25,0.36 -1.89,0.51l-1.78 -6.66c-0.15,-0.56 -0.71,-0.89 -1.27,-0.76l-3.32 0.76c-0.92,0.22 -1.89,0.22 -2.81,0l-3.32 -0.76c-0.56,-0.13 -1.12,0.2 -1.27,0.76l-1.78 6.66c-0.63,-0.15 -1.27,-0.32 -1.89,-0.51 -1.5,-0.46 -3.1,0.38 -3.56,1.88 -0.46,1.5 0.38,3.09 1.88,3.55 1.12,0.35 2.24,0.64 3.37,0.88 -0.17,4.57 3.49,8.29 7.98,8.29 4.46,0 8.14,-3.71 7.97,-8.29 1.13,-0.24 2.25,-0.53 3.37,-0.88 1.5,-0.46 2.34,-2.05 1.88,-3.55z"/>
    </g>
   </g>
   <g>
   </g>
   <g>
   </g>
   <g>
   </g>
   <g>
   </g>
   <g>
   </g>
   <g>
   </g>
   <g>
   </g>
   <g>
   </g>
   <g>
   </g>
   <g>
   </g>
   <g>
   </g>
   <g>
   </g>
   <g>
   </g>
   <g>
   </g>
   <g>
   </g>
  </g>
  <g id="_1922122429088">
   <g>
    <g>
     <path class="fil1" d="M1061.92 658.69l-0.01 -0.05c-0.14,-0.03 -0.25,-0.04 -0.38,-0.07 -0.25,-0.07 -0.49,-0.11 -0.74,-0.13 -3.05,-0.47 -4.28,0.05 -4.28,0.05l-4.26 8.76 -0.02 0.05 0.01 -0.05 -0.87 -0.08 0.88 0 -0.01 0.08 0.01 0c0,-0.03 0,-0.06 0,-0.08l0 0 0.87 -7.4 2.06 0 0 -2.01 -2.77 0 0 0.38 -1.78 0 0 -0.38 -2.07 0 0 2.01 1.73 0 1.05 7.53c0,0 -4.19,-9.14 -4.56,-9 0,0 -1.53,-1.77 -7.26,1.11 -0.24,0.27 -0.41,0.58 -0.55,0.91 -0.05,0.06 -9.39,16.29 -9.7,25.92 -0.06,1.82 0.84,3.03 2.08,3.64l0 1.83c-0.07,-0.02 -0.15,-0.04 -0.22,-0.04 -0.74,0 -1.33,0.6 -1.33,1.34l0 4.68c0,0.73 0.59,1.33 1.33,1.33 0.32,0 0.61,-0.12 0.84,-0.3l0 7.18c0,0.47 0.59,0.86 1.32,0.86 0.74,0 1.33,-0.39 1.33,-0.86l0 -7.2c0.23,0.2 0.52,0.32 0.85,0.32 0.74,0 1.34,-0.6 1.34,-1.33l0 -4.68c0,-0.74 -0.6,-1.34 -1.34,-1.34 -0.24,0 -0.47,0.07 -0.66,0.19l0 -1.72c1.58,-0.48 2.92,-1.77 2.99,-3.9 0.13,-4.06 0.97,-8 2.46,-11.69l-0.03 13.31 14.99 0 -1.6 -5.28 8.44 0 0 5.28 0.38 0c0.01,-4.74 0.02,-10.26 0.02,-14.31 1.62,3.35 2.68,6.95 3.01,10.75 0.47,5.44 9.01,5.48 8.53,0 -0.81,-9.33 -11.56,-25.39 -12.08,-25.61z"/>
     <path class="fil1" d="M1062.06 697.74l-3.83 0 -2.3 -7.58 -15.71 0 -0.02 9.85 0 30.88c0,2.54 1.86,4.6 4.46,4.6 2.62,0 4.73,-2.06 4.73,-4.6l0 -32.17c0,0 0.15,-1.63 1.81,-1.65 1.67,-0.02 1.62,1.57 1.62,1.57l0 32.16c0,2.54 2.12,4.6 4.73,4.6 2.61,0 4.73,-2.06 4.73,-4.6l0.15 -33.19c0,-0.12 0.01,-3.26 0.01,-7.45l-0.38 0 0 7.58z"/>
     <polygon class="fil1" points="1061.1,696.57 1061.1,683.54 1055.17,683.54 1059.12,696.57 "/>
     <path class="fil1" d="M1043.15 648.69c0.18,4.28 3.69,7.69 8.01,7.69 4.3,0 7.8,-3.37 8.02,-7.61 4.04,-0.71 6.63,-3.58 6.75,-3.72 0.72,-0.81 0.64,-2.05 -0.17,-2.78 -0.8,-0.72 -2.05,-0.65 -2.78,0.15 -0.02,0.03 -1.87,2.02 -4.57,2.46 -0.23,-0.47 -0.5,-0.92 -0.81,-1.34 0,-0.01 0.01,-0.02 0.01,-0.03l-0.99 -8.6c0,-0.33 -0.35,-0.59 -0.78,-0.59l-9.59 0c-0.43,0 -0.78,0.26 -0.78,0.59l-0.79 8.6c0,0.02 0.02,0.04 0.02,0.07 -0.28,0.39 -0.53,0.8 -0.75,1.24 -2.49,-0.55 -4.19,-2.35 -4.24,-2.4 -0.72,-0.81 -1.96,-0.88 -2.78,-0.16 -0.81,0.72 -0.89,1.97 -0.16,2.79 0.12,0.14 2.55,2.82 6.38,3.64z"/>
    </g>
   </g>
   <g>
   </g>
   <g>
   </g>
   <g>
   </g>
   <g>
   </g>
   <g>
   </g>
   <g>
   </g>
   <g>
   </g>
   <g>
   </g>
   <g>
   </g>
   <g>
   </g>
   <g>
   </g>
   <g>
   </g>
   <g>
   </g>
   <g>
   </g>
   <g>
   </g>
  </g>
  <rect class="fil3" x="1069.84" width="140.95" height="118.88"/>
  <rect class="fil3" width="2280.63" height="1079.35"/>
 </g>
</svg>
