<?xml version="1.0" encoding="UTF-8"?>
<!DOCTYPE svg PUBLIC "-//W3C//DTD SVG 1.1//EN" "http://www.w3.org/Graphics/SVG/1.1/DTD/svg11.dtd">
<!-- Creator: CorelDRAW 2021 (64-Bit) -->
<svg xmlns="http://www.w3.org/2000/svg" xml:space="preserve" width="215px" height="280px" version="1.1" style="shape-rendering:geometricPrecision; text-rendering:geometricPrecision; image-rendering:optimizeQuality; fill-rule:evenodd; clip-rule:evenodd"
viewBox="0 0 163.27 212.63"
 xmlns:xlink="http://www.w3.org/1999/xlink"
 xmlns:xodm="http://www.corel.com/coreldraw/odm/2003">
 <defs>
  <style type="text/css">
   <![CDATA[
    .fil0 {fill:none}
    .fil1 {fill:white}
    .fil2 {fill:black;fill-rule:nonzero}
   ]]>
  </style>
 </defs>
 <g id="Capa_x0020_1">
  <metadata id="CorelCorpID_0Corel-Layer"/>
  <rect class="fil0" width="163.27" height="212.63"/>
  <g>
   <path class="fil1" d="M106.99 17.69c2.55,1.35 4.59,3.68 5.51,6.66 0.92,2.98 0.54,6.04 -0.8,8.59 -1.36,2.55 -3.69,4.59 -6.66,5.51 -0.89,0.27 -1.8,0.53 -2.74,0.78 -0.77,3.95 -2.64,7.49 -5.27,10.33l2.95 0c0.92,0 1.89,0.11 2.89,0.34l0 0c0.98,0.22 1.9,0.54 2.75,0.94l14.49 6.84 1.05 -13.85c-0.31,-0.26 -0.6,-0.53 -0.87,-0.82 -0.65,-0.69 -1.21,-1.46 -1.67,-2.28 -1.32,-0.32 -2.5,-1.01 -3.44,-1.94 -1.32,-1.32 -2.14,-3.15 -2.14,-5.17l0 -3.15c0,-2.03 0.82,-3.85 2.14,-5.18 0.73,-0.73 1.61,-1.3 2.6,-1.67l0.42 -8.91c0.1,-1.94 0.95,-3.69 2.26,-4.94 1.32,-1.26 3.1,-2.03 5.03,-2.03l2.82 0c1.94,0 3.72,0.77 5.04,2.03 1.31,1.26 2.16,3 2.25,4.94l0.22 4.49c0.05,0.02 0.11,0.03 0.16,0.05 1.82,0.54 3.45,1.68 4.58,3.33 0.35,0.47 0.63,0.99 0.83,1.55 0.28,0.67 0.47,1.37 0.57,2.06 0.9,0.58 1.73,1.26 2.47,2.02 2.13,2.22 3.49,5.18 3.67,8.43 0,0.05 0.01,0.11 0.01,0.16 0.02,0.58 0.02,1.1 -0.02,1.57l-2.46 32.58c-0.18,2.36 -0.79,4.57 -1.73,6.57 -1.64,3.47 -4.3,6.28 -7.51,8.15 -3.19,1.86 -6.94,2.78 -10.76,2.49 -2.19,-0.16 -4.41,-0.73 -6.57,-1.75l-12.1 -5.71 0 26.88c0,1.23 -0.38,2.37 -1.03,3.31 0.65,0.94 1.03,2.08 1.03,3.31l0 7.31c1.93,5.01 5.11,14.53 7.06,27.06 2.09,13.47 2.76,30.44 -1.12,49.03 0,0.02 0,0.03 -0.01,0.04 -0.83,3.99 -3.19,7.25 -6.33,9.3 -3.13,2.05 -7.05,2.91 -11,2.1 -0.02,-0.01 -0.03,-0.01 -0.05,-0.01 -3.98,-0.84 -7.25,-3.2 -9.3,-6.34 -2.06,-3.14 -2.92,-7.07 -2.09,-11.05 4.8,-22.99 0.68,-42.87 -2.7,-53.91 -3.35,11.18 -7.47,31.41 -2.78,53.91 0.83,3.98 -0.02,7.91 -2.08,11.05 -1.96,3 -5.02,5.29 -8.76,6.21 -0.34,0.11 -0.7,0.18 -1.06,0.23 -3.79,0.65 -7.52,-0.22 -10.53,-2.18 -3,-1.97 -5.29,-5.03 -6.21,-8.77 -0.1,-0.31 -0.17,-0.63 -0.21,-0.97 -2.93,-14.24 -3.21,-27.48 -2.23,-38.9 1.53,-17.98 6.2,-31.63 8.55,-37.55l0 -6.56c0,-1.23 0.38,-2.37 1.03,-3.31 -0.65,-0.94 -1.03,-2.08 -1.03,-3.31l0 -26.78 -11.9 5.61c-2.16,1.02 -4.38,1.59 -6.57,1.75 -3.82,0.29 -7.56,-0.63 -10.76,-2.49 -3.2,-1.86 -5.86,-4.67 -7.5,-8.15 -0.95,-2 -1.56,-4.21 -1.74,-6.57l-2.46 -32.59c-0.04,-0.44 -0.04,-0.96 -0.02,-1.53 0.14,-3.31 1.51,-6.35 3.68,-8.61 0.73,-0.77 1.56,-1.45 2.47,-2.02 0.13,-0.99 0.44,-1.96 0.94,-2.89l0.01 0.01c0,0 0.01,0 0.01,-0.01 1.11,-2.05 2.95,-3.45 5.02,-4.06 0.06,-0.02 0.11,-0.03 0.17,-0.05l0.21 -4.49c0.09,-1.95 0.94,-3.69 2.26,-4.94 1.32,-1.26 3.09,-2.03 5.03,-2.03l2.82 0c1.94,0 3.71,0.77 5.03,2.03 1.32,1.25 2.17,3 2.26,4.94l0.42 8.9c0.99,0.38 1.87,0.95 2.6,1.68 1.33,1.33 2.15,3.15 2.15,5.18l0 3.15c0,1.66 -0.57,3.2 -1.53,4.44 -0.18,0.26 -0.39,0.5 -0.62,0.73 -0.93,0.93 -2.11,1.61 -3.44,1.94 -0.45,0.82 -1.01,1.59 -1.67,2.28 -0.27,0.29 -0.56,0.56 -0.87,0.82l1.05 13.85 14.49 -6.84c0.76,-0.36 1.58,-0.65 2.45,-0.87 0.1,-0.02 0.2,-0.05 0.3,-0.07 1,-0.23 1.97,-0.34 2.9,-0.34l2.74 0c-2.64,-2.83 -4.51,-6.38 -5.28,-10.33 -0.93,-0.25 -1.85,-0.51 -2.73,-0.78 0,0 0,0 0,0 -2.98,-0.92 -5.31,-2.96 -6.66,-5.51 -1.34,-2.55 -1.72,-5.61 -0.8,-8.58 0,-0.01 0,-0.01 0,-0.01 0.91,-2.98 2.95,-5.3 5.51,-6.66 1.91,-1.01 4.11,-1.47 6.36,-1.25l1.95 -7.31c0.55,-2.04 1.87,-3.69 3.57,-4.71 1.68,-1.01 3.74,-1.4 5.8,-0.93l6.37 1.48c0.43,0.1 0.9,0.15 1.4,0.15 0.51,0 0.98,-0.05 1.41,-0.15l6.37 -1.47c2.05,-0.48 4.11,-0.1 5.8,0.92 1.7,1.02 3.01,2.66 3.56,4.71l1.96 7.31c2.24,-0.22 4.45,0.24 6.36,1.25zm-0.05 8.37c-0.88,-2.88 -3.94,-4.5 -6.83,-3.62 -1.2,0.38 -2.42,0.7 -3.63,1l-3.43 -12.81c-0.29,-1.07 -1.37,-1.71 -2.44,-1.46l-6.37 1.47c-1.78,0.41 -3.63,0.41 -5.41,0l-6.37 -1.48c-1.08,-0.24 -2.16,0.4 -2.44,1.47l-3.43 12.81c-1.22,-0.3 -2.43,-0.63 -3.64,-1 -2.88,-0.88 -5.94,0.74 -6.83,3.62 -0.89,2.89 0.73,5.94 3.62,6.83 2.14,0.66 4.3,1.22 6.47,1.68 -0.33,8.77 6.68,15.93 15.32,15.93 8.64,0 15.66,-7.15 15.32,-15.93 2.18,-0.46 4.34,-1.02 6.48,-1.68 2.88,-0.88 4.5,-3.94 3.61,-6.83zm27.67 3.93l-0.09 -0.16 0.33 -0.18c1.27,-0.69 1.75,-2.28 1.05,-3.56 -0.69,-1.27 -2.28,-1.74 -3.55,-1.05l-2.03 1.1c-0.22,-4.74 -0.42,-9.02 -0.53,-11.15 -0.03,-0.8 -0.68,-1.42 -1.48,-1.42l-2.82 0c-0.79,0 -1.44,0.62 -1.48,1.42 -0.12,2.55 -0.39,8.19 -0.66,13.99l-3 0c-0.82,0 -1.48,0.67 -1.48,1.49l0 3.15c0,0.82 0.66,1.48 1.48,1.48l2.71 0c0,0.02 -0.01,0.05 -0.01,0.07 0,-0.03 -0.01,0.6 0.06,1.01 0.33,2.07 1.88,3.86 4.14,4.35l-1.97 26.02 -22.14 -10.45c-0.99,-0.47 -2.07,-0.71 -3.16,-0.71 -4.32,0 -32.37,0 -36.68,0 -1.1,0 -2.17,0.24 -3.16,0.71l-22.15 10.45 -1.97 -26.02c2.25,-0.48 3.81,-2.26 4.14,-4.35 0.08,-0.41 0.07,-1.04 0.06,-1.01 0,-0.02 0,-0.05 0,-0.07l2.7 0c0.82,0 1.49,-0.66 1.49,-1.48l0 -3.15c0,-0.83 -0.67,-1.49 -1.49,-1.49l-2.99 0c-0.28,-5.8 -0.55,-11.44 -0.67,-13.99 -0.04,-0.8 -0.69,-1.42 -1.48,-1.42l-2.82 0c-0.79,0 -1.44,0.62 -1.48,1.42 -0.1,2.13 -0.31,6.41 -0.53,11.15l-2.02 -1.1c-1.27,-0.69 -2.87,-0.22 -3.56,1.05 -0.69,1.27 -0.22,2.87 1.05,3.56l0.33 0.18 -0.08 0.16c-4.48,-0.19 -8.01,3.57 -7.68,7.94l2.46 32.59c0.68,8.96 10.15,14.47 18.27,10.63l20.22 -9.54 0 35.97 39.19 0 0 -36.07 20.42 9.64c8.13,3.84 17.59,-1.67 18.27,-10.63l2.47 -32.59c0.33,-4.38 -3.23,-8.13 -7.68,-7.94zm-72.67 84.21l0 7.64c-3.24,7.83 -14.03,37.91 -6.37,74.61 1,4.81 5.71,7.88 10.5,6.88 4.8,-1 7.88,-5.7 6.88,-10.5 -7.47,-35.81 6.22,-66.15 6.34,-66.54l4.18 0c0.42,1.32 13.91,30.28 6.35,66.54 -1.01,4.8 2.07,9.5 6.87,10.5 4.8,1 9.51,-2.07 10.51,-6.88 7.44,-35.65 -2.53,-65.05 -6.07,-73.88l0 -8.37 -39.19 0z"/>
   <path id="_1" class="fil2" d="M106.94 26.06c-0.88,-2.88 -3.94,-4.5 -6.83,-3.62 -1.2,0.38 -2.42,0.7 -3.63,1l-3.43 -12.81c-0.29,-1.07 -1.37,-1.71 -2.44,-1.46l-6.37 1.47c-1.78,0.41 -3.63,0.41 -5.41,0l-6.37 -1.48c-1.08,-0.24 -2.16,0.4 -2.44,1.47l-3.43 12.81c-1.22,-0.3 -2.43,-0.63 -3.64,-1 -2.88,-0.88 -5.94,0.74 -6.83,3.62 -0.89,2.89 0.73,5.94 3.62,6.83 2.14,0.66 4.3,1.22 6.47,1.68 -0.33,8.77 6.68,15.93 15.32,15.93 8.64,0 15.66,-7.15 15.32,-15.93 2.18,-0.46 4.34,-1.02 6.48,-1.68 2.88,-0.88 4.5,-3.94 3.61,-6.83zm27.67 3.93l-0.09 -0.16 0.33 -0.18c1.27,-0.69 1.75,-2.28 1.05,-3.56 -0.69,-1.27 -2.28,-1.74 -3.55,-1.05l-2.03 1.1c-0.22,-4.74 -0.42,-9.02 -0.53,-11.15 -0.03,-0.8 -0.68,-1.42 -1.48,-1.42l-2.82 0c-0.79,0 -1.44,0.62 -1.48,1.42 -0.12,2.55 -0.39,8.19 -0.66,13.99l-3 0c-0.82,0 -1.48,0.67 -1.48,1.49l0 3.15c0,0.82 0.66,1.48 1.48,1.48l2.71 0c0,0.02 -0.01,0.05 -0.01,0.07 0,-0.03 -0.01,0.6 0.06,1.01 0.33,2.07 1.88,3.86 4.14,4.35l-1.97 26.02 -22.14 -10.45c-0.99,-0.47 -2.07,-0.71 -3.16,-0.71 -4.32,0 -32.37,0 -36.68,0 -1.1,0 -2.17,0.24 -3.16,0.71l-22.15 10.45 -1.97 -26.02c2.25,-0.48 3.81,-2.26 4.14,-4.35 0.08,-0.41 0.07,-1.04 0.06,-1.01 0,-0.02 0,-0.05 0,-0.07l2.7 0c0.82,0 1.49,-0.66 1.49,-1.48l0 -3.15c0,-0.83 -0.67,-1.49 -1.49,-1.49l-2.99 0c-0.28,-5.8 -0.55,-11.44 -0.67,-13.99 -0.04,-0.8 -0.69,-1.42 -1.48,-1.42l-2.82 0c-0.79,0 -1.44,0.62 -1.48,1.42 -0.1,2.13 -0.31,6.41 -0.53,11.15l-2.02 -1.1c-1.27,-0.69 -2.87,-0.22 -3.56,1.05 -0.69,1.27 -0.22,2.87 1.05,3.56l0.33 0.18 -0.08 0.16c-4.48,-0.19 -8.01,3.57 -7.68,7.94l2.46 32.59c0.68,8.96 10.15,14.47 18.27,10.63l20.22 -9.54 0 35.97 39.19 0 0 -36.07 20.42 9.64c8.13,3.84 17.59,-1.67 18.27,-10.63l2.47 -32.59c0.33,-4.38 -3.23,-8.13 -7.68,-7.94zm-72.67 84.21l0 7.64c-3.24,7.83 -14.03,37.91 -6.37,74.61 1,4.81 5.71,7.88 10.5,6.88 4.8,-1 7.88,-5.7 6.88,-10.5 -7.47,-35.81 6.22,-66.15 6.34,-66.54l4.18 0c0.42,1.32 13.91,30.28 6.35,66.54 -1.01,4.8 2.07,9.5 6.87,10.5 4.8,1 9.51,-2.07 10.51,-6.88 7.44,-35.65 -2.53,-65.05 -6.07,-73.88l0 -8.37 -39.19 0z"/>
  </g>
 </g>
</svg>
